<?xml version="1.0" encoding="iso-8859-1"?>
<!-- Generator: Adobe Illustrator 21.0.0, SVG Export Plug-In . SVG Version: 6.00 Build 0)  -->
<svg version="1.1" id="Capa_1" xmlns="http://www.w3.org/2000/svg" xmlns:xlink="http://www.w3.org/1999/xlink" x="0px" y="0px"
	 viewBox="0 0 590.922 590.922" style="enable-background:new 0 0 590.922 590.922;" xml:space="preserve">
<g>
	<g>
		<g id="filled_outline_9_">
			<path style="fill:#DADDDF;" d="M518.851,216.731c16.424-74.337-30.513-147.915-104.85-164.339
				c-66.533-14.7-133.835,21.419-158.358,84.987c-33.006-43.262-94.83-51.568-138.092-18.562
				c-29.981,22.877-44.277,60.868-36.809,97.835h-6.897c-35.37,0-64.041,28.671-64.041,64.041s28.671,64.041,64.041,64.041h443.359
				c35.36-0.7,63.46-29.932,62.76-65.292C579.306,245.698,552.566,218.259,518.851,216.731z"/>
			<polygon style="fill:#4398D1;" points="295.526,502.373 403.903,413.701 354.641,413.701 354.641,265.915 236.411,265.915 
				236.411,413.701 187.149,413.701 			"/>
			<path style="fill:#87CED9;" d="M433.46,551.635H157.592c-5.439,0-9.852-4.414-9.852-9.852v-59.115h19.705v49.262h256.163v-49.262
				h19.705v59.115C443.313,547.221,438.909,551.635,433.46,551.635z"/>
			<polygon style="fill:#3E8CC7;" points="354.641,325.029 230.5,449.17 295.526,502.373 403.903,413.701 354.641,413.701 			"/>
			<rect x="354.641" y="285.62" style="fill:#C7CACC;" width="29.557" height="59.115"/>
			<path style="fill:#71C4D1;" d="M423.608,531.93H315.231l-19.705,19.705H433.46c5.439,0,9.852-4.414,9.852-9.852v-59.115h-19.705
				V531.93z"/>
			<path d="M530.457,208.032c11.616-80.741-44.425-155.619-125.175-167.235c-62.356-8.966-123.549,22.601-152.368,78.622
				c-20.158-19.843-47.331-30.937-75.617-30.848C117.473,88.64,68.989,137.124,68.92,196.948c0,3.33,0.158,6.67,0.463,9.99
				c-40.73,2.493-71.736,37.538-69.243,78.268c2.384,38.966,34.671,69.351,73.706,69.381h113.303v-19.705H73.846
				c-29.932,0-54.188-24.257-54.188-54.188s24.257-54.188,54.188-54.188h6.897c5.439,0,9.852-4.414,9.852-9.852
				c0-0.66-0.069-1.32-0.197-1.97c-9.793-47.981,21.163-94.82,69.144-104.613c5.842-1.192,11.793-1.793,17.754-1.793
				c27.715-0.059,53.834,12.936,70.504,35.075c3.291,4.335,9.478,5.173,13.803,1.882c1.458-1.103,2.572-2.591,3.232-4.296
				c25.449-65.962,99.559-98.8,165.511-73.351c49.4,19.055,81.962,66.563,81.933,119.51c-0.02,9.281-1.044,18.523-3.044,27.587
				c-1.163,5.32,2.207,10.562,7.527,11.724c0.611,0.138,1.232,0.207,1.852,0.227c29.873,1.793,52.642,27.459,50.848,57.331
				c-1.675,27.912-24.316,49.972-52.257,50.917H403.903v19.705h113.303c40.809-0.099,73.814-33.262,73.716-74.071
				C590.833,244.949,565.424,214.495,530.457,208.032z"/>
			<path d="M354.641,256.062H236.411c-5.439,0-9.852,4.414-9.852,9.852v137.934h-39.41c-5.439,0-9.852,4.414-9.852,9.852
				c0,2.956,1.33,5.754,3.616,7.626l108.377,88.672c3.626,2.966,8.848,2.966,12.473,0l108.377-88.672
				c4.207-3.448,4.838-9.655,1.389-13.862c-1.872-2.286-4.67-3.616-7.626-3.616h-39.41V265.915
				C364.493,260.466,360.089,256.062,354.641,256.062z M376.316,423.554l-80.79,66.09l-80.79-66.09h21.675
				c5.439,0,9.852-4.414,9.852-9.852V275.767h98.524v137.934c0,5.439,4.414,9.852,9.852,9.852H376.316z"/>
			<path d="M147.74,482.668v59.115c0,5.438,4.414,9.852,9.852,9.852H433.46c5.439,0,9.852-4.414,9.852-9.852v-59.115h-19.705v49.262
				H167.444v-49.262H147.74z"/>
		</g>
	</g>
</g>
<g>
</g>
<g>
</g>
<g>
</g>
<g>
</g>
<g>
</g>
<g>
</g>
<g>
</g>
<g>
</g>
<g>
</g>
<g>
</g>
<g>
</g>
<g>
</g>
<g>
</g>
<g>
</g>
<g>
</g>
</svg>
