<svg height="480pt" viewBox="0 -63 480 479" width="480pt" xmlns="http://www.w3.org/2000/svg"><path d="m472 344.5h-464v-304h160l40-32h264zm0 0" fill="#d6d6d4"/><path d="m24 8.5h48v32h-48zm0 0" fill="#c7c7c5"/><path d="m104 8.5h64v32h-64zm0 0" fill="#c7c7c5"/><path d="m143.679688 304.5h-135.679688v-192h464v192zm0 0" fill="#7a432a"/><path d="m392 304.5h-240c8.175781 15.273438 19.183594 28.847656 32.441406 40h175.101563c13.261719-11.152344 24.277343-24.726562 32.457031-40zm0 0" fill="#c7c7c5"/><path d="m136 240.5c-.027344 22.328125 5.46875 44.3125 16 64h240c18.632812-34.894531 21.132812-76.179688 6.839844-113.066406-14.292969-36.882813-43.957032-65.707032-81.238282-78.933594h-91.203124c-54.167969 19.257812-90.367188 70.507812-90.398438 128zm0 0" fill="#743b20"/><path d="m376 208.5c0 75.109375-60.890625 136-136 136s-136-60.890625-136-136 60.890625-136 136-136 136 60.890625 136 136zm0 0" fill="#e0e0de"/><path d="m342.863281 119.699219c-32 120.457031-133.984375 170.402343-193.855469 189.671875 53.257813 48.199218 134.832032 46.613281 186.175782-3.621094 51.339844-50.234375 54.707031-131.753906 7.679687-186.050781zm0 0" fill="#d6d6d4"/><path d="m344 208.5c0 57.4375-46.5625 104-104 104s-104-46.5625-104-104 46.5625-104 104-104 104 46.5625 104 104zm0 0" fill="#3d4d63"/><path d="m184 240.5c-.007812-33.144531 15.78125-64.308594 42.511719-83.90625 26.730469-19.59375 61.203125-25.273438 92.808593-15.292969-28.578124-33.742187-75.367187-45.722656-116.644531-29.871093-41.277343 15.851562-68.019531 56.070312-66.667969 100.265624 1.351563 44.195313 30.503907 82.707032 72.671876 96.003907-15.953126-18.753907-24.703126-42.578125-24.679688-67.199219zm0 0" fill="#374559"/><path d="m288 208.5c0 26.507812-21.492188 48-48 48s-48-21.492188-48-48 21.492188-48 48-48 48 21.492188 48 48zm0 0" fill="#2a3845"/><path d="m440 256.5c0 8.835938-7.164062 16-16 16s-16-7.164062-16-16 7.164062-16 16-16 16 7.164062 16 16zm0 0" fill="#2a71ad"/><path d="m352 40.5h88v40h-88zm0 0" fill="#ebebe9"/><path d="m392 136.5h16v16h-16zm0 0" fill="#a3a3a1"/><path d="m40 64.5h80v16h-80zm0 0" fill="#ebebe9"/><path d="m96 64.5h24v16h-24zm0 0" fill="#e0e0de"/><path d="m32 168.5h16v112h-16zm0 0" fill="#8c5137"/><path d="m32 136.5h16v16h-16zm0 0" fill="#8c5137"/><path d="m384 80.5h56v-40h-16zm0 0" fill="#e0e0de"/><path d="m40 80.5h80c0 8.835938-7.164062 16-16 16h-48c-8.835938 0-16-7.164062-16-16zm0 0" fill="#c7c7c5"/><path d="m472 .5h-264c-1.816406 0-3.582031.617188-5 1.753906l-27 21.597656v-15.351562c0-4.417969-3.582031-8-8-8h-64c-4.417969 0-8 3.582031-8 8v24h-16v-24c0-4.417969-3.582031-8-8-8h-48c-4.417969 0-8 3.582031-8 8v24h-8c-4.417969 0-8 3.582031-8 8v304c0 4.417969 3.582031 8 8 8h464c4.417969 0 8-3.582031 8-8v-336c0-4.417969-3.582031-8-8-8zm-360 16h48v16h-48zm-80 0h32v16h-32zm-8 32h144c.992188-.011719 1.96875-.210938 2.886719-.585938.304687-.144531.601562-.308593.890625-.484374.425781-.195313.835937-.421876 1.222656-.683594l37.808594-30.246094h253.191406v88h-124.671875c-55.480469-53.332031-143.175781-53.332031-198.65625 0h-124.671875v-56zm440 248h-110.273438c40.363282-51.722656 40.363282-124.277344 0-176h110.273438zm-448-176h110.273438c-40.363282 51.722656-40.363282 124.277344 0 176h-110.273438zm96 88c0-70.691406 57.308594-128 128-128s128 57.308594 128 128-57.308594 128-128 128c-70.65625-.082031-127.917969-57.34375-128-128zm-96 128v-24h124.671875c10.011719 9.570312 21.347656 17.652344 33.65625 24zm289.671875 0c12.308594-6.347656 23.644531-14.429688 33.65625-24h124.671875v24zm0 0"/><path d="m240 320.5c61.855469 0 112-50.144531 112-112s-50.144531-112-112-112-112 50.144531-112 112c.066406 61.828125 50.171875 111.933594 112 112zm0-208c53.019531 0 96 42.980469 96 96s-42.980469 96-96 96-96-42.980469-96-96c.058594-52.996094 43.003906-95.941406 96-96zm0 0"/><path d="m240 264.5c30.929688 0 56-25.070312 56-56s-25.070312-56-56-56-56 25.070312-56 56c.035156 30.914062 25.085938 55.964844 56 56zm0-96c22.089844 0 40 17.910156 40 40s-17.910156 40-40 40-40-17.910156-40-40c.027344-22.082031 17.917969-39.972656 40-40zm0 0"/><path d="m400 256.5c0 13.253906 10.746094 24 24 24s24-10.746094 24-24-10.746094-24-24-24-24 10.746094-24 24zm24-8c4.417969 0 8 3.582031 8 8s-3.582031 8-8 8-8-3.582031-8-8 3.582031-8 8-8zm0 0"/><path d="m352 88.5h88c4.417969 0 8-3.582031 8-8v-40c0-4.417969-3.582031-8-8-8h-88c-4.417969 0-8 3.582031-8 8v40c0 4.417969 3.582031 8 8 8zm8-40h72v24h-72zm0 0"/><path d="m392 136.5h16v16h-16zm0 0"/><path d="m48 64.5h64v16h-64zm0 0"/><path d="m32 168.5h16v112h-16zm0 0"/><path d="m32 136.5h16v16h-16zm0 0"/></svg>