<?xml version="1.0" encoding="iso-8859-1"?>
<!-- Generator: Adobe Illustrator 19.0.0, SVG Export Plug-In . SVG Version: 6.00 Build 0)  -->
<svg version="1.1" id="Capa_1" xmlns="http://www.w3.org/2000/svg" xmlns:xlink="http://www.w3.org/1999/xlink" x="0px" y="0px"
	 viewBox="0 0 512 512" style="enable-background:new 0 0 512 512;" xml:space="preserve">
<path style="fill:#FEC9A3;" d="M221.867,0l-51.2,51.2v152.149c-0.307,13.986,10.291,25.822,24.226,27.051
	c14.114,0.759,26.18-10.069,26.94-24.192c0.026-0.469,0.034-0.939,0.034-1.408v-59.733c0-18.85,15.283-34.133,34.133-34.133l0,0
	c18.85,0,34.133,15.283,34.133,34.133v58.283c-0.307,13.986,10.291,25.822,24.226,27.051c14.114,0.759,26.18-10.069,26.94-24.192
	c0.026-0.469,0.034-0.939,0.034-1.408V0H221.867z"/>
<path style="fill:#F5B789;" d="M145.067,230.4L145.067,230.4c-14.14,0-25.6-11.46-25.6-25.6V102.4l51.2-51.2v153.6
	C170.667,218.94,159.206,230.4,145.067,230.4z"/>
<path style="fill:#E0A172;" d="M119.467,102.4l-60.314,59.733c-9.771,9.788-10.624,25.361-1.98,36.164l0,0
	c9.37,11.708,26.453,13.611,38.17,4.241c0.785-0.623,1.527-1.297,2.236-2.005l21.888-21.333V102.4z"/>
<path style="fill:#FEC9A3;" d="M76.8,238.933L76.8,238.933c18.85,0,34.133,15.283,34.133,34.133v17.067
	c0,18.85-15.283,34.133-34.133,34.133l0,0c-18.85,0-34.133-15.283-34.133-34.133v-17.067C42.667,254.217,57.95,238.933,76.8,238.933
	z"/>
<path style="fill:#4398D1;" d="M145.067,392.533v-42.667c0-14.14-11.46-25.6-25.6-25.6H34.133c-14.14,0-25.6,11.46-25.6,25.6v42.667
	h34.133V486.4l-8.533,17.067h85.333l-8.533-17.067v-93.867H145.067z"/>
<path style="fill:#3F8FC4;" d="M128.128,325.871c-19.584,42.803-48.836,80.469-85.461,110.037V486.4l-8.533,17.067h85.333
	l-8.533-17.067v-93.867h34.133v-42.667C145.05,339.098,138.274,329.498,128.128,325.871z"/>
<rect x="68.267" y="418.133" style="fill:#3685BA;" width="17.067" height="85.333"/>
<g>
	<rect x="8.533" y="392.533" style="fill:#FEC9A3;" width="34.133" height="34.133"/>
	<rect x="110.933" y="392.533" style="fill:#FEC9A3;" width="34.133" height="34.133"/>
</g>
<g>
	<rect x="34.133" y="349.867" style="fill:#3685BA;" width="17.067" height="51.2"/>
	<rect x="102.4" y="349.867" style="fill:#3685BA;" width="17.067" height="51.2"/>
</g>
<path style="fill:#FEC9A3;" d="M256,170.667L256,170.667c18.85,0,34.133,15.283,34.133,34.133v17.067
	C290.133,240.717,274.85,256,256,256l0,0c-18.85,0-34.133-15.283-34.133-34.133V204.8C221.867,185.95,237.15,170.667,256,170.667z"
	/>
<path style="fill:#4398D1;" d="M324.267,324.267V281.6c0-14.14-11.46-25.6-25.6-25.6h-85.333c-14.14,0-25.6,11.46-25.6,25.6v42.667
	h34.133v93.867l-8.533,17.067h85.333l-8.533-17.067v-93.867H324.267z"/>
<path style="fill:#3F8FC4;" d="M307.328,257.604c-19.584,42.803-48.836,80.469-85.461,110.037v50.492l-8.533,17.067h85.333
	l-8.533-17.067v-93.867h34.133V281.6C324.25,270.831,317.474,261.231,307.328,257.604z"/>
<rect x="247.467" y="349.867" style="fill:#3685BA;" width="17.067" height="85.333"/>
<g>
	<rect x="187.733" y="324.267" style="fill:#FEC9A3;" width="34.133" height="34.133"/>
	<rect x="290.133" y="324.267" style="fill:#FEC9A3;" width="34.133" height="34.133"/>
</g>
<g>
	<rect x="213.333" y="281.6" style="fill:#3685BA;" width="17.067" height="51.2"/>
	<rect x="281.6" y="281.6" style="fill:#3685BA;" width="17.067" height="51.2"/>
</g>
<path style="fill:#FEC9A3;" d="M435.2,238.933L435.2,238.933c18.85,0,34.133,15.283,34.133,34.133v17.067
	c0,18.85-15.283,34.133-34.133,34.133l0,0c-18.85,0-34.133-15.283-34.133-34.133v-17.067
	C401.067,254.217,416.35,238.933,435.2,238.933z"/>
<path style="fill:#4398D1;" d="M503.467,392.533v-42.667c0-14.14-11.46-25.6-25.6-25.6h-85.333c-14.14,0-25.6,11.46-25.6,25.6
	v42.667h34.133V486.4l-8.533,17.067h85.333l-8.533-17.067v-93.867H503.467z"/>
<path style="fill:#3F8FC4;" d="M486.528,325.871c-19.584,42.803-48.836,80.469-85.461,110.037V486.4l-8.533,17.067h85.333
	l-8.533-17.067v-93.867h34.133v-42.667C503.45,339.098,496.674,329.498,486.528,325.871z"/>
<rect x="426.667" y="418.133" style="fill:#3685BA;" width="17.067" height="85.333"/>
<g>
	<rect x="366.933" y="392.533" style="fill:#FEC9A3;" width="34.133" height="34.133"/>
	<rect x="469.333" y="392.533" style="fill:#FEC9A3;" width="34.133" height="34.133"/>
</g>
<g>
	<rect x="392.533" y="349.867" style="fill:#3685BA;" width="17.067" height="51.2"/>
	<rect x="460.8" y="349.867" style="fill:#3685BA;" width="17.067" height="51.2"/>
</g>
<path d="M8.533,435.2h25.6v49.186l-7.637,15.266c-2.108,4.215-0.401,9.344,3.823,11.452c1.178,0.589,2.492,0.896,3.814,0.896h85.333
	c4.71,0,8.533-3.814,8.533-8.533c0-1.323-0.307-2.637-0.896-3.814l-7.637-15.266V435.2h25.6c4.71,0,8.533-3.823,8.533-8.533v-76.8
	c0-18.85-15.283-34.133-34.133-34.133h-8.755c5.649-7.339,8.721-16.341,8.755-25.6v-17.067c0-23.561-19.106-42.667-42.667-42.667
	s-42.667,19.106-42.667,42.667v17.067c0.034,9.259,3.106,18.261,8.755,25.6h-8.755C15.283,315.733,0,331.017,0,349.867v76.8
	C0,431.377,3.823,435.2,8.533,435.2z M136.533,418.133h-17.067v-17.067h17.067V418.133z M51.2,273.067c0-14.14,11.46-25.6,25.6-25.6
	s25.6,11.46,25.6,25.6v17.067c0,14.14-11.46,25.6-25.6,25.6s-25.6-11.46-25.6-25.6V273.067z M17.067,349.867
	c0-9.429,7.637-17.067,17.067-17.067h85.333c9.429,0,17.067,7.637,17.067,17.067V384h-17.067v-34.133H102.4V486.4
	c0,1.323,0.307,2.628,0.896,3.814l2.364,4.719H85.333v-76.8H68.267v76.8H47.94l2.364-4.719c0.589-1.186,0.896-2.492,0.896-3.814
	V349.867H34.133V384H17.067V349.867z M17.067,401.067h17.067v17.067H17.067V401.067z"/>
<path d="M503.467,435.2c4.71,0,8.533-3.823,8.533-8.533v-76.8c0-18.85-15.283-34.133-34.133-34.133h-8.755
	c5.649-7.339,8.721-16.341,8.755-25.6v-17.067c0-23.561-19.106-42.667-42.667-42.667s-42.667,19.106-42.667,42.667v17.067
	c0.034,9.259,3.106,18.261,8.755,25.6h-8.755c-18.85,0-34.133,15.283-34.133,34.133v76.8c0,4.71,3.823,8.533,8.533,8.533h25.6
	v49.186l-7.68,15.266c-2.108,4.215-0.401,9.344,3.823,11.452c1.195,0.597,2.517,0.905,3.857,0.896h85.333
	c4.71,0.026,8.55-3.772,8.576-8.491c0.009-1.34-0.299-2.662-0.896-3.857l-7.68-15.266V435.2H503.467z M494.933,418.133h-17.067
	v-17.067h17.067V418.133z M409.6,273.067c0-14.14,11.46-25.6,25.6-25.6s25.6,11.46,25.6,25.6v17.067c0,14.14-11.46,25.6-25.6,25.6
	s-25.6-11.46-25.6-25.6V273.067z M392.533,418.133h-17.067v-17.067h17.067V418.133z M460.8,349.867V486.4
	c-0.017,1.323,0.282,2.628,0.853,3.814l2.364,4.719h-20.284v-76.8h-17.067v76.8H406.34l2.364-4.719
	c0.589-1.186,0.896-2.492,0.896-3.814V349.867h-17.067V384h-17.067v-34.133c0-9.429,7.637-17.067,17.067-17.067h85.333
	c9.429,0,17.067,7.637,17.067,17.067V384h-17.067v-34.133H460.8z"/>
<path d="M332.8,204.8c0.017,4.685-1.911,9.173-5.325,12.382c-3.413,3.209-7.979,4.898-12.663,4.685
	c-9.395-1.007-16.427-9.079-16.145-18.517v-58.283c0-23.561-19.106-42.667-42.667-42.667s-42.667,19.106-42.667,42.667V204.8
	c0.017,4.685-1.911,9.173-5.325,12.382c-3.413,3.217-7.979,4.907-12.663,4.685c-9.395-1.007-16.427-9.079-16.145-18.517V54.733
	L233.933,0h-24.132l-45.167,45.167l-51.157,51.2l0,0L53.137,156.1c-13.935,13.926-13.943,36.523-0.017,50.458
	c6.212,6.212,14.498,9.916,23.27,10.402c0.657,0,1.314,0.06,1.98,0.06c9.421,0,18.466-3.721,25.148-10.368l7.415-7.236v5.385
	c-0.094,18.773,15.053,34.065,33.818,34.15c10.027,0.051,19.558-4.326,26.061-11.964c10.948,13.15,30.08,15.846,44.245,6.246
	c1.425,5.146,3.814,9.975,7.031,14.234h-8.755c-18.85,0-34.133,15.283-34.133,34.133v76.8c0,4.71,3.823,8.533,8.533,8.533h25.6
	v49.186l-7.637,15.266c-2.108,4.215-0.401,9.344,3.823,11.452c1.178,0.589,2.492,0.896,3.814,0.896h85.333
	c4.71,0.026,8.55-3.772,8.576-8.491c0.009-1.34-0.299-2.662-0.896-3.857l-7.68-15.266v-49.186h25.6c4.71,0,8.533-3.823,8.533-8.533
	v-76.8c0-18.85-15.283-34.133-34.133-34.133h-8.755c3.268-4.318,5.675-9.225,7.091-14.455c4.983,3.49,10.837,5.521,16.905,5.871
	c0.623,0,1.246,0.051,1.86,0.051c8.738,0.017,17.143-3.345,23.458-9.387c6.775-6.451,10.624-15.394,10.641-24.747V0H332.8V204.8z
	 M110.933,175.599L91.52,194.5c-7.262,7.27-19.038,7.279-26.308,0.017c-0.495-0.495-0.956-1.007-1.391-1.553
	c-5.922-7.381-5.35-18.048,1.34-24.747l45.773-45.338V175.599z M162.133,203.349v1.451c0,9.429-7.637,17.067-17.067,17.067
	c-9.429,0-17.067-7.637-17.067-17.067v-98.867l34.133-34.133V203.349z M230.4,145.067c0-14.14,11.46-25.6,25.6-25.6
	c14.14,0,25.6,11.46,25.6,25.6v25.822c-15.07-11.674-36.13-11.674-51.2,0V145.067z M230.4,204.8c0-14.14,11.46-25.6,25.6-25.6
	c14.14,0,25.6,11.46,25.6,25.6v17.067c0,14.14-11.46,25.6-25.6,25.6c-14.14,0-25.6-11.46-25.6-25.6V204.8z M213.333,349.867h-17.067
	V332.8h17.067V349.867z M315.733,349.867h-17.067V332.8h17.067V349.867z M298.667,264.533c9.429,0,17.067,7.637,17.067,17.067
	v34.133h-17.067V281.6H281.6v136.533c-0.017,1.323,0.282,2.628,0.853,3.814l2.364,4.719h-20.284v-76.8h-17.067v76.8H227.14
	l2.364-4.719c0.589-1.186,0.896-2.492,0.896-3.814V281.6h-17.067v34.133h-17.067V281.6c0-9.429,7.637-17.067,17.067-17.067H298.667z
	"/>
<g>
</g>
<g>
</g>
<g>
</g>
<g>
</g>
<g>
</g>
<g>
</g>
<g>
</g>
<g>
</g>
<g>
</g>
<g>
</g>
<g>
</g>
<g>
</g>
<g>
</g>
<g>
</g>
<g>
</g>
</svg>
