<?xml version="1.0" encoding="iso-8859-1"?>
<!-- Generator: Adobe Illustrator 21.0.0, SVG Export Plug-In . SVG Version: 6.00 Build 0)  -->
<svg version="1.1" id="Capa_1" xmlns="http://www.w3.org/2000/svg" xmlns:xlink="http://www.w3.org/1999/xlink" x="0px" y="0px"
	 viewBox="0 0 602.693 602.693" style="enable-background:new 0 0 602.693 602.693;" xml:space="preserve">
<g>
	<g>
		<g>
			<g id="filled_outline_20_">
				
					<rect x="211.417" y="320.223" transform="matrix(0.7071 -0.7071 0.7071 0.7071 -165.0161 284.6804)" style="fill:#C7CACC;" width="99.43" height="42.619"/>
				<circle style="fill:#DADDDF;" cx="401.776" cy="200.904" r="190.846"/>
				<circle style="fill:#71C4D1;" cx="401.776" cy="200.904" r="140.623"/>
				<circle style="fill:#87CED9;" cx="401.776" cy="200.904" r="120.534"/>
				
					<rect x="-4.398" y="436.589" transform="matrix(0.7071 -0.7071 0.7071 0.7071 -295.5892 230.5875)" style="fill:#75462E;" width="269.894" height="71.024"/>
				
					<rect x="10.681" y="472.969" transform="matrix(0.7071 -0.7071 0.7071 0.7071 -301.8292 245.6635)" style="fill:#613A26;" width="269.894" height="28.406"/>
				<path style="fill:#71C4D1;" d="M310.22,307.516c58.821,50.614,147.544,43.955,198.158-14.866
					c45.331-52.684,45.331-130.609,0-183.293L310.22,307.516z"/>
				<path d="M401.776,0.013C291.035-0.188,201.086,89.419,200.885,200.16c-0.08,42.659,13.45,84.233,38.621,118.676l-28.577,28.577
					l-2.943-2.943c-3.917-3.917-10.286-3.917-14.203,0L2.938,535.316c-3.917,3.917-3.917,10.286,0,14.203l50.223,50.223
					c3.917,3.917,10.276,3.917,14.203,0L258.21,408.896c3.917-3.917,3.917-10.286,0-14.203l-2.943-2.943l28.577-28.577
					c89.688,65.199,215.244,45.351,280.453-44.327s45.351-215.244-44.327-280.453C485.618,13.423,444.234-0.017,401.776,0.013z
					 M60.252,578.437l-36.02-36.02l176.643-176.643l2.943,2.943l30.134,30.134l2.943,2.943L60.252,578.437z M241.054,377.547
					l-15.931-15.931l27.12-27.07c5.012,5.605,10.326,10.918,15.931,15.931L241.054,377.547z M401.776,381.705
					c-99.853,0-180.801-80.949-180.801-180.801S301.923,20.102,401.776,20.102s180.801,80.949,180.801,180.801
					C582.447,300.706,501.578,381.585,401.776,381.705z"/>
				<path d="M401.776,50.236c-83.209,0-150.668,67.459-150.668,150.668s67.459,150.668,150.668,150.668
					s150.668-67.459,150.668-150.668C552.343,117.735,484.935,50.326,401.776,50.236z M401.776,331.482
					c-72.12,0-130.579-58.459-130.579-130.579S329.656,70.325,401.776,70.325s130.579,58.459,130.579,130.579
					C532.274,272.983,473.845,331.402,401.776,331.482z"/>
				
					<rect x="330.737" y="190.861" transform="matrix(0.7071 -0.7071 0.7071 0.7071 -24.3888 342.9318)" width="142.048" height="20.089"/>
				
					<rect x="329.013" y="160.735" transform="matrix(0.7071 -0.7071 0.7071 0.7071 -11.9126 312.8002)" width="85.227" height="20.089"/>
				
					<rect x="389.278" y="221.004" transform="matrix(0.7071 -0.7071 0.7071 0.7071 -36.8777 373.0655)" width="85.227" height="20.089"/>
			</g>
		</g>
	</g>
</g>
<g>
</g>
<g>
</g>
<g>
</g>
<g>
</g>
<g>
</g>
<g>
</g>
<g>
</g>
<g>
</g>
<g>
</g>
<g>
</g>
<g>
</g>
<g>
</g>
<g>
</g>
<g>
</g>
<g>
</g>
</svg>
