<?xml version="1.0" encoding="utf-8"?>
<!-- Generator: Adobe Illustrator 22.1.0, SVG Export Plug-In . SVG Version: 6.00 Build 0)  -->
<svg version="1.1" id="Capa_1" xmlns="http://www.w3.org/2000/svg" xmlns:xlink="http://www.w3.org/1999/xlink" x="0px" y="0px"
	 viewBox="0 0 512 512" style="enable-background:new 0 0 512 512;" xml:space="preserve">
<style type="text/css">
	.st0{fill:#FDB62F;}
	.st1{fill:#E0E0E0;}
	.st2{fill:#4398D1;}
	.st3{fill:#2B2B2B;}
	.st4{fill:none;stroke:#2B2B2B;stroke-width:4;stroke-miterlimit:10;}
	.st5{fill:none;stroke:#2B2B2B;stroke-width:5;stroke-miterlimit:10;}
</style>
<path id="SVGCleanerId_0" d="M434.4,230.4h-7.7v-42.7h3.9L434.4,230.4z M145.1,358.4c-14.1,0-25.6-11.5-25.6-25.6
	s11.5-25.6,25.6-25.6s25.6,11.5,25.6,25.6S159.2,358.4,145.1,358.4z M375.5,358.4h-51.2v-17.1h51.2V358.4z M51.2,221.8v-34.1h25.6
	v34.1L51.2,221.8L51.2,221.8z M93.9,187.7h25.6v34.1H93.9V187.7z M136.5,187.7h25.6v34.1h-25.6V187.7z M179.2,187.7h25.6v34.1h-25.6
	V187.7z M221.9,187.7h25.6v34.1h-25.6V187.7z M264.5,187.7h42.7v34.1h-42.7V187.7L264.5,187.7z M375.5,290.1h-17.1V187.7h17.1V290.1
	L375.5,290.1z M341.3,290.1h-17.1V187.7h17.1V290.1z M324.3,307.2h51.2v17.1h-51.2V307.2z M443.7,358.4c-14.1,0-25.6-11.5-25.6-25.6
	s11.5-25.6,25.6-25.6s25.6,11.5,25.6,25.6S457.9,358.4,443.7,358.4z M485.5,324.2c-4.7-23.1-27.2-38-50.3-33.3
	c-16.8,3.4-29.9,16.5-33.3,33.3h-9.4v-145c0-4.7-3.8-8.5-8.5-8.5H42.7c-4.7,0-8.5,3.8-8.5,8.5v51.2c0,4.7,3.8,8.5,8.5,8.5h264.5
	v85.3H186.9c-4.7-23.1-27.2-38-50.3-33.3c-16.8,3.4-29.9,16.5-33.3,33.3H17.1V162.1c0-4.7,3.8-8.5,8.5-8.5h394.2
	c4.4,0,8,3.3,8.5,7.6l0.9,9.5h-2.4c-9.4,0-17.1,7.6-17.1,17.1v42.7c0,9.4,7.6,17.1,17.1,17.1h16.4l44.5,6.4c4.2,0.6,7.3,4.2,7.3,8.4
	v11c-7.3-5.6-16.3-8.7-25.6-8.8h-59.7v17.1h59.7c14.1,0,25.6,11.5,25.6,25.6v17.1L485.5,324.2L485.5,324.2z"/>
<g>
	<rect id="SVGCleanerId_1" x="34.1" y="256" width="256" height="17.1"/>
</g>
<rect x="34.1" y="290.1" width="59.7" height="17.1"/>
<g>
	<rect id="SVGCleanerId_2" x="196.3" y="290.1" width="93.9" height="17.1"/>
</g>
<rect x="136.5" y="324.2" width="17.1" height="17.1"/>
<g>
	<rect id="SVGCleanerId_3" x="435.2" y="324.2" width="17.1" height="17.1"/>
</g>
<path class="st0" d="M110.9,332.8H8.5V162.1c0-9.4,7.6-17.1,17.1-17.1h394.2c8.8,0,16.1,6.6,17,15.4l7,78.5l45.1,6.4
	c8.4,1.2,14.7,8.4,14.7,16.9v32v38.5H478L110.9,332.8z"/>
<rect x="315.7" y="298.6" class="st1" width="68.3" height="68.3"/>
<g>
	<rect x="315.7" y="179.2" class="st2" width="68.3" height="119.5"/>
	<rect x="42.7" y="179.2" class="st2" width="273.1" height="51.2"/>
</g>
<g>
	<circle class="st3" cx="145.1" cy="332.8" r="34.1"/>
	<circle class="st3" cx="443.7" cy="332.8" r="34.1"/>
</g>
<path class="st2" d="M418.1,187.7v42.7c0,4.7,3.8,8.5,8.5,8.5h17.1l-5.3-59.7h-11.7C422,179.2,418.1,183,418.1,187.7z"/>
<g>
	<path class="st4" d="M443.7,368.5c-16.9,0-31.5-12-34.9-28.6l-1.1-5.6h-22.1v32.6c0,0.8-0.7,1.5-1.5,1.5h-68.3
		c-0.8,0-1.5-0.7-1.5-1.5v-32.6h-133l-1.1,5.6c-2.9,14.1-13.8,25-27.9,27.9c-2.4,0.5-4.8,0.7-7.1,0.7c-16.9,0-31.5-12-34.9-28.6
		l-1.1-5.6H8.5c-0.8,0-1.5-0.7-1.5-1.5V162.1c0-10.3,8.3-18.6,18.6-18.6h394.2c9.7,0,17.6,7.2,18.5,16.7l1.6,17.4H478
		c0.8,0,1.5,0.7,1.5,1.5v27.1h-3.1v-25.6h-36.2l5.1,56.9l43.9,6.3c9.2,1.4,15.9,9.1,16,18.4v70.5c0,0.8-0.7,1.5-1.5,1.5h-23.6
		l-1.1,5.6c-2.9,14.1-13.8,25-27.9,27.9C448.5,368.3,446.1,368.5,443.7,368.5z M443.7,300.2c-18,0-32.6,14.6-32.6,32.6
		s14.6,32.6,32.6,32.6s32.6-14.6,32.6-32.6S461.7,300.2,443.7,300.2z M317.3,365.4h65.2v-31.1h-65.2V365.4z M145.1,300.2
		c-18,0-32.6,14.6-32.6,32.6s14.6,32.6,32.6,32.6s32.6-14.6,32.6-32.6S163,300.2,145.1,300.2z M443.8,297.1
		c16.9,0,31.5,12,34.9,28.6l1.1,5.6h22.1v-24.1c3.3-21.5-14.6-32.6-32.6-32.6h-52.7v-3.1h52.7c7.7,0,15.2,2.6,21.3,7.3l11.3,8.7
		v-25.2c0-7.7-5.7-14.3-13.3-15.4l-45-6.4h-16.9c-5.6,0-10.1-4.5-10.1-10.1v-42.7c0-5.6,4.5-10.1,10.1-10.1h10.1l-1.5-17.1
		c-0.8-8-7.5-14-15.4-14H25.6c-8.6,0-15.5,7-15.5,15.5v169.1H109l1.1-5.6c2.9-14.1,13.8-25,27.9-27.9c2.4-0.5,4.8-0.7,7.1-0.7
		c16.9,0,31.5,12,34.9,28.6l1.1,5.6h133v-99.3H42.7c-0.8,0-1.5-0.7-1.5-1.5v-51.2c0-0.8,0.7-1.5,1.5-1.5H384c0.8,0,1.5,0.7,1.5,1.5
		v152.1h22.1l1.1-5.6c2.9-14.1,13.8-25,27.9-27.9C439,297.3,441.4,297.1,443.8,297.1z M317.3,331.2h65.2v-31.1h-65.2V331.2z
		 M351.4,297.1h31.1V180.7h-31.1V297.1z M317.3,297.1h31.1V180.7h-31.1V297.1z M419.7,237.4h22.4l-5.1-56.7h-17.3V237.4z
		 M44.2,228.8h39.6v-48.1H44.2V228.8z M257.5,228.8h56.7v-48.1h-56.7V228.8z M214.9,228.8h39.6v-48.1h-39.6V228.8z M172.2,228.8
		h39.6v-48.1h-39.6L172.2,228.8L172.2,228.8z M129.5,228.8h39.6v-48.1h-39.6V228.8z M86.9,228.8h39.6v-48.1H86.9V228.8z"/>
</g>
<g>
	<rect x="41.1" y="263" class="st5" width="242" height="3.1"/>
</g>
<rect x="41.1" y="297.1" class="st4" width="45.7" height="3.1"/>
<g>
	<rect x="203.3" y="297.1" class="st4" width="79.9" height="3.1"/>
</g>
<circle class="st0" cx="145" cy="332.8" r="8.5"/>
<circle class="st0" cx="443.7" cy="332.8" r="8.5"/>
</svg>
