<?xml version="1.0" encoding="utf-8"?>
<!-- Generator: Adobe Illustrator 22.1.0, SVG Export Plug-In . SVG Version: 6.00 Build 0)  -->
<svg version="1.1" id="Livello_1" xmlns="http://www.w3.org/2000/svg" xmlns:xlink="http://www.w3.org/1999/xlink" x="0px" y="0px"
	 viewBox="0 0 480 480" style="enable-background:new 0 0 480 480;" xml:space="preserve">
<style type="text/css">
	.st0{fill:#B0564C;}
	.st1{fill:#7EB457;}
	.st2{fill:#69A340;}
	.st3{fill:#964138;}
	.st4{fill:#FEC9A3;}
	.st5{fill:#FEB784;}
	.st6{fill:#348FD9;}
	.st7{fill:#3086CD;}
	.st8{fill:none;stroke:#2B2B2B;stroke-width:10;stroke-miterlimit:10;}
	.st9{fill:none;stroke:#2B2B2B;stroke-width:14.1448;stroke-miterlimit:10;}
	.st10{fill:none;stroke:#2B2B2B;stroke-width:15;stroke-miterlimit:10;}
</style>
<path class="st0" d="M132,378.4c-0.1-8,3.1-15.6,8.8-21.2l78.1-76.8c11-10.8,25.7-16.8,41.1-16.8s30.1,6.1,41.1,16.9l78.1,76.8
	c5.6,5.6,8.8,13.2,8.8,21.1c0,16.3-13.3,29.6-29.6,29.6H161.6C145.2,408,132,394.7,132,378.4z"/>
<path class="st1" d="M308,8h8c0,26.5-21.5,48-48,48h-8C260,29.5,281.5,8,308,8z"/>
<path class="st1" d="M276,136h-16c0-35.3,28.7-64,64-64h16C340,107.3,311.3,136,276,136z"/>
<polygon class="st1" points="257,264.3 257.5,42.9 263.5,43 263,264.4 "/>
<path class="st2" d="M252,56h8c0-26.5-21.5-48-48-48h-8C204,34.5,225.5,56,252,56z"/>
<path class="st2" d="M180,72h16c35.3,0,64,28.7,64,64h-16C208.7,136,180,107.3,180,72z"/>
<path class="st1" d="M276,224h-16c0-35.3,28.7-64,64-64h16C340,195.3,311.3,224,276,224z"/>
<path class="st2" d="M180,160h16c35.3,0,64,28.7,64,64h-16C208.7,224,180,195.3,180,160z"/>
<path class="st3" d="M300,336h-16v-16h16V336z"/>
<path class="st3" d="M252,312h-16v-16h16V312z"/>
<path class="st4" d="M132,359.1v112h169.3c14.9,0,29.6-3.4,42.9-10.1l93.3-46.6c8.9-4.4,14.5-13.5,14.5-23.4v-1.7
	c0-8.9-4.5-17.2-12-22s-16.9-5.5-25-1.8l-91,41.7h-16c13.3,0,24-10.7,24-24s-10.7-24-24-24h-61.4l-2-1.1
	C209.4,338.9,166.8,339.3,132,359.1z"/>
<path class="st5" d="M212,407.2c0-4.4,3.6-8,8-8h88c4.4,0,8,3.6,8,8s-3.6,8-8,8h-88C215.6,415.2,212,411.6,212,407.2z"/>
<path class="st6" d="M132,471.2H28v-112h104V471.2z"/>
<path class="st7" d="M132,471.2H28V416h104V471.2z"/>
<path class="st8" d="M301.5,473H28c-0.6,0-1-0.4-1-1V360c0-0.6,0.4-1,1-1h103.9l1.6-0.9c2.8-1.6,5.8-3,8.8-4.3l1.2-0.5l74.7-73.5
	c9.4-9.2,21.7-15.1,34.7-16.7l6.1-0.8V225h-15c-35.8,0-65-29.2-65-65c0-0.6,0.4-1,1-1h16c19.7,0,38.1,8.8,50.5,24.2l12.5,15.5V137
	h-15c-35.8,0-65-29.2-65-65c0-0.6,0.4-1,1-1h16c19.7,0,38.2,8.8,50.5,24.2l12.5,15.5V57h-7c-27,0-49-22-49-49c0-0.6,0.4-1,1-1h8
	c17.1,0,33.2,9.2,42,23.9l6,10.1l6-10.1C274.8,16.2,290.9,7,308,7h8c0.6,0,1,0.5,1,1c0,27-22,49-49,49h-7v53.7l12.5-15.5
	C285.8,79.8,304.3,71,324,71h16c0.6,0,1,0.5,1,1c0,35.8-29.2,65-65,65h-15v61.7l12.5-15.5c12.3-15.4,30.8-24.2,50.5-24.2h16
	c0.6,0,1,0.5,1,1c0,35.8-29.2,65-65,65h-15v37.2l6.1,0.8c13,1.6,25.3,7.6,34.7,16.7l78.1,76.8c3.4,3.5,6,7.9,7.4,12.6l2.3,7.7
	l24.9-11.4c3.6-1.7,7.4-2.5,11.3-2.5c5.3,0,10.3,1.5,14.7,4.3c7.8,5,12.5,13.5,12.5,22.8v1.8c0.1,10.3-5.8,19.8-15,24.3l-93.2,46.7
	C331.4,469.5,316.4,473,301.5,473L301.5,473z M131,361H29v110h102V361z M415.3,367.1l-26.4,12.1l-0.4,0.2c0,0.1-0.1,0.1-0.1,0.1
	l-64,29.3c-0.1,0.1-0.2,0.1-0.4,0.1h-97v-2h81c12.7,0,23-10.3,23-23s-10.3-23-23-23h-61.3c-0.2,0-0.4,0-0.5-0.1l-2-1.1
	c-16.8-9-35.7-13.8-54.8-13.8c-15.6,0-30.7,3-45,9.1c-2.6,1-5.1,2.2-7.6,3.5l-3.8,2v110.6h168.4c14.7,0,29.3-3.5,42.4-10.1
	l93.3-46.6c8.5-4.2,13.9-13,13.9-22.5v-1.8c0-8.6-4.4-16.5-11.6-21.1c-4.1-2.6-8.8-4-13.6-4C422.2,365,418.7,365.7,415.3,367.1z
	 M219.5,281.2l-68.2,67.1l21.1-3.1c5.6-0.8,11.3-1.2,16.9-1.2c19.5,0,38.8,4.9,55.9,14.1l1.5,0.8l61.2,0.1c7.8,0,15.2,3.7,19.9,9.8
	c4.7,6.1,6.3,14.2,4.3,21.7l-3.9,14.4l59.3-27.1l-1.2-5.5c-1.2-5.4-3.8-10.3-7.8-14.3l-78.1-76.8c-10.8-10.7-25.2-16.6-40.4-16.6
	C244.8,264.6,230.4,270.5,219.5,281.2z M180.4,161l1.2,8c4.5,30.7,31.3,54,62.4,54h15.5l-1.2-8c-4.4-30.7-31.2-54-62.3-54H180.4z
	 M339.7,161h-15.5c-31.1,0-57.9,23.3-62.4,54l-1.2,8h15.5c31,0,57.8-23.3,62.3-54L339.7,161z M180.4,73l1.2,8
	c4.5,30.7,31.3,54,62.4,54h15.5l-1.2-8c-4.4-30.7-31.2-54-62.3-54H180.4z M339.7,73h-15.5c-31.1,0-57.9,23.3-62.4,54l-1.2,8h15.5
	c31,0,57.8-23.3,62.3-54L339.7,73z M204.2,8.8l1.8,8.6c4.4,21.7,23,37.1,45.1,37.6l8.8,0.2l-1.8-8.6C253.7,24.9,235.1,9.5,213,9
	L204.2,8.8z M315.9,8.8L307.1,9C285,9.5,266.4,24.9,262,46.6l-1.8,8.6L269,55c22.1-0.5,40.7-15.9,45.1-37.6L315.9,8.8z"/>
<circle class="st9" cx="90.6" cy="431.6" r="6.4"/>
<rect x="291" y="327" class="st10" width="2" height="2"/>
<rect x="243" y="303" class="st10" width="2" height="2"/>
</svg>
