<!--?xml version="1.0" encoding="utf-8"?-->
<!-- Generator: Adobe Illustrator 22.1.0, SVG Export Plug-In . SVG Version: 6.00 Build 0)  -->
<svg version="1.1" id="Livello_1" xmlns="http://www.w3.org/2000/svg" xmlns:xlink="http://www.w3.org/1999/xlink" x="0px" y="0px" viewBox="0 0 480 480" style="" xml:space="preserve">
<style type="text/css">
	.st0{fill:#B0564C;}
	.st1{fill:#7EB457;}
	.st2{fill:#69A340;}
	.st3{fill:#964138;}
	.st4{fill:#FEC9A3;}
	.st5{fill:#FEB784;}
	.st6{fill:#348FD9;}
	.st7{fill:#3086CD;}
	.st8{fill:none;stroke:#2B2B2B;stroke-width:10;stroke-miterlimit:10;}
	.st9{fill:none;stroke:#2B2B2B;stroke-width:14.1448;stroke-miterlimit:10;}
	.st10{fill:none;stroke:#2B2B2B;stroke-width:15;stroke-miterlimit:10;}
</style>
<path class="st0 ejQCmrQm_0" d="M132,378.4c-0.1-8,3.1-15.6,8.8-21.2l78.1-76.8c11-10.8,25.7-16.8,41.1-16.8s30.1,6.1,41.1,16.9l78.1,76.8
	c5.6,5.6,8.8,13.2,8.8,21.1c0,16.3-13.3,29.6-29.6,29.6H161.6C145.2,408,132,394.7,132,378.4z"></path>
<path class="st1 ejQCmrQm_1" d="M308,8h8c0,26.5-21.5,48-48,48h-8C260,29.5,281.5,8,308,8z"></path>
<path class="st1 ejQCmrQm_2" d="M276,136h-16c0-35.3,28.7-64,64-64h16C340,107.3,311.3,136,276,136z"></path>
<path class="st1 ejQCmrQm_3" d="M257,264.3L257.5,42.9L263.5,43L263,264.4Z"></path>
<path class="st2 ejQCmrQm_4" d="M252,56h8c0-26.5-21.5-48-48-48h-8C204,34.5,225.5,56,252,56z"></path>
<path class="st2 ejQCmrQm_5" d="M180,72h16c35.3,0,64,28.7,64,64h-16C208.7,136,180,107.3,180,72z"></path>
<path class="st1 ejQCmrQm_6" d="M276,224h-16c0-35.3,28.7-64,64-64h16C340,195.3,311.3,224,276,224z"></path>
<path class="st2 ejQCmrQm_7" d="M180,160h16c35.3,0,64,28.7,64,64h-16C208.7,224,180,195.3,180,160z"></path>
<path class="st3 ejQCmrQm_8" d="M300,336h-16v-16h16V336z"></path>
<path class="st3 ejQCmrQm_9" d="M252,312h-16v-16h16V312z"></path>
<path class="st4 ejQCmrQm_10" d="M132,359.1v112h169.3c14.9,0,29.6-3.4,42.9-10.1l93.3-46.6c8.9-4.4,14.5-13.5,14.5-23.4v-1.7
	c0-8.9-4.5-17.2-12-22s-16.9-5.5-25-1.8l-91,41.7h-16c13.3,0,24-10.7,24-24s-10.7-24-24-24h-61.4l-2-1.1
	C209.4,338.9,166.8,339.3,132,359.1z"></path>
<path class="st5 ejQCmrQm_11" d="M212,407.2c0-4.4,3.6-8,8-8h88c4.4,0,8,3.6,8,8s-3.6,8-8,8h-88C215.6,415.2,212,411.6,212,407.2z"></path>
<path class="st6 ejQCmrQm_12" d="M132,471.2H28v-112h104V471.2z"></path>
<path class="st7 ejQCmrQm_13" d="M132,471.2H28V416h104V471.2z"></path>
<path class="st8 ejQCmrQm_14" d="M301.5,473H28c-0.6,0-1-0.4-1-1V360c0-0.6,0.4-1,1-1h103.9l1.6-0.9c2.8-1.6,5.8-3,8.8-4.3l1.2-0.5l74.7-73.5
	c9.4-9.2,21.7-15.1,34.7-16.7l6.1-0.8V225h-15c-35.8,0-65-29.2-65-65c0-0.6,0.4-1,1-1h16c19.7,0,38.1,8.8,50.5,24.2l12.5,15.5V137
	h-15c-35.8,0-65-29.2-65-65c0-0.6,0.4-1,1-1h16c19.7,0,38.2,8.8,50.5,24.2l12.5,15.5V57h-7c-27,0-49-22-49-49c0-0.6,0.4-1,1-1h8
	c17.1,0,33.2,9.2,42,23.9l6,10.1l6-10.1C274.8,16.2,290.9,7,308,7h8c0.6,0,1,0.5,1,1c0,27-22,49-49,49h-7v53.7l12.5-15.5
	C285.8,79.8,304.3,71,324,71h16c0.6,0,1,0.5,1,1c0,35.8-29.2,65-65,65h-15v61.7l12.5-15.5c12.3-15.4,30.8-24.2,50.5-24.2h16
	c0.6,0,1,0.5,1,1c0,35.8-29.2,65-65,65h-15v37.2l6.1,0.8c13,1.6,25.3,7.6,34.7,16.7l78.1,76.8c3.4,3.5,6,7.9,7.4,12.6l2.3,7.7
	l24.9-11.4c3.6-1.7,7.4-2.5,11.3-2.5c5.3,0,10.3,1.5,14.7,4.3c7.8,5,12.5,13.5,12.5,22.8v1.8c0.1,10.3-5.8,19.8-15,24.3l-93.2,46.7
	C331.4,469.5,316.4,473,301.5,473L301.5,473z M131,361H29v110h102V361z M415.3,367.1l-26.4,12.1l-0.4,0.2c0,0.1-0.1,0.1-0.1,0.1
	l-64,29.3c-0.1,0.1-0.2,0.1-0.4,0.1h-97v-2h81c12.7,0,23-10.3,23-23s-10.3-23-23-23h-61.3c-0.2,0-0.4,0-0.5-0.1l-2-1.1
	c-16.8-9-35.7-13.8-54.8-13.8c-15.6,0-30.7,3-45,9.1c-2.6,1-5.1,2.2-7.6,3.5l-3.8,2v110.6h168.4c14.7,0,29.3-3.5,42.4-10.1
	l93.3-46.6c8.5-4.2,13.9-13,13.9-22.5v-1.8c0-8.6-4.4-16.5-11.6-21.1c-4.1-2.6-8.8-4-13.6-4C422.2,365,418.7,365.7,415.3,367.1z
	 M219.5,281.2l-68.2,67.1l21.1-3.1c5.6-0.8,11.3-1.2,16.9-1.2c19.5,0,38.8,4.9,55.9,14.1l1.5,0.8l61.2,0.1c7.8,0,15.2,3.7,19.9,9.8
	c4.7,6.1,6.3,14.2,4.3,21.7l-3.9,14.4l59.3-27.1l-1.2-5.5c-1.2-5.4-3.8-10.3-7.8-14.3l-78.1-76.8c-10.8-10.7-25.2-16.6-40.4-16.6
	C244.8,264.6,230.4,270.5,219.5,281.2z M180.4,161l1.2,8c4.5,30.7,31.3,54,62.4,54h15.5l-1.2-8c-4.4-30.7-31.2-54-62.3-54H180.4z
	 M339.7,161h-15.5c-31.1,0-57.9,23.3-62.4,54l-1.2,8h15.5c31,0,57.8-23.3,62.3-54L339.7,161z M180.4,73l1.2,8
	c4.5,30.7,31.3,54,62.4,54h15.5l-1.2-8c-4.4-30.7-31.2-54-62.3-54H180.4z M339.7,73h-15.5c-31.1,0-57.9,23.3-62.4,54l-1.2,8h15.5
	c31,0,57.8-23.3,62.3-54L339.7,73z M204.2,8.8l1.8,8.6c4.4,21.7,23,37.1,45.1,37.6l8.8,0.2l-1.8-8.6C253.7,24.9,235.1,9.5,213,9
	L204.2,8.8z M315.9,8.8L307.1,9C285,9.5,266.4,24.9,262,46.6l-1.8,8.6L269,55c22.1-0.5,40.7-15.9,45.1-37.6L315.9,8.8z"></path>
<path class="st9 ejQCmrQm_15" d="M84.19999999999999,431.6A6.4,6.4 0,1,1 97,431.6A6.4,6.4 0,1,1 84.19999999999999,431.6"></path>
<path class="st10 ejQCmrQm_16" width="2" height="2" d="M291 327 L293 327 L293 329 L291 329 Z"></path>
<path class="st10 ejQCmrQm_17" width="2" height="2" d="M243 303 L245 303 L245 305 L243 305 Z"></path>
<style data-made-with="vivus-instant">.ejQCmrQm_0{stroke-dasharray:648 650;stroke-dashoffset:649;animation:ejQCmrQm_draw 1666ms linear 0ms forwards;}.ejQCmrQm_1{stroke-dasharray:167 169;stroke-dashoffset:168;animation:ejQCmrQm_draw 1666ms linear 49ms forwards;}.ejQCmrQm_2{stroke-dasharray:234 236;stroke-dashoffset:235;animation:ejQCmrQm_draw 1666ms linear 98ms forwards;}.ejQCmrQm_3{stroke-dasharray:455 457;stroke-dashoffset:456;animation:ejQCmrQm_draw 1666ms linear 147ms forwards;}.ejQCmrQm_4{stroke-dasharray:167 169;stroke-dashoffset:168;animation:ejQCmrQm_draw 1666ms linear 196ms forwards;}.ejQCmrQm_5{stroke-dasharray:234 236;stroke-dashoffset:235;animation:ejQCmrQm_draw 1666ms linear 245ms forwards;}.ejQCmrQm_6{stroke-dasharray:234 236;stroke-dashoffset:235;animation:ejQCmrQm_draw 1666ms linear 294ms forwards;}.ejQCmrQm_7{stroke-dasharray:234 236;stroke-dashoffset:235;animation:ejQCmrQm_draw 1666ms linear 343ms forwards;}.ejQCmrQm_8{stroke-dasharray:64 66;stroke-dashoffset:65;animation:ejQCmrQm_draw 1666ms linear 392ms forwards;}.ejQCmrQm_9{stroke-dasharray:64 66;stroke-dashoffset:65;animation:ejQCmrQm_draw 1666ms linear 441ms forwards;}.ejQCmrQm_10{stroke-dasharray:886 888;stroke-dashoffset:887;animation:ejQCmrQm_draw 1666ms linear 490ms forwards;}.ejQCmrQm_11{stroke-dasharray:227 229;stroke-dashoffset:228;animation:ejQCmrQm_draw 1666ms linear 539ms forwards;}.ejQCmrQm_12{stroke-dasharray:432 434;stroke-dashoffset:433;animation:ejQCmrQm_draw 1666ms linear 588ms forwards;}.ejQCmrQm_13{stroke-dasharray:319 321;stroke-dashoffset:320;animation:ejQCmrQm_draw 1666ms linear 637ms forwards;}.ejQCmrQm_14{stroke-dasharray:5862 5864;stroke-dashoffset:5863;animation:ejQCmrQm_draw 1666ms linear 686ms forwards;}.ejQCmrQm_15{stroke-dasharray:41 43;stroke-dashoffset:42;animation:ejQCmrQm_draw 1666ms linear 735ms forwards;}.ejQCmrQm_16{stroke-dasharray:8 10;stroke-dashoffset:9;animation:ejQCmrQm_draw 1666ms linear 784ms forwards;}.ejQCmrQm_17{stroke-dasharray:8 10;stroke-dashoffset:9;animation:ejQCmrQm_draw 1666ms linear 833ms forwards;}@keyframes ejQCmrQm_draw{100%{stroke-dashoffset:0;}}@keyframes ejQCmrQm_fade{0%{stroke-opacity:1;}94.02985074626866%{stroke-opacity:1;}100%{stroke-opacity:0;}}</style></svg>
