<?xml version="1.0" encoding="utf-8"?>
<!-- Generator: Adobe Illustrator 24.1.1, SVG Export Plug-In . SVG Version: 6.00 Build 0)  -->
<svg version="1.1" baseProfile="tiny" id="Layer_1" xmlns="http://www.w3.org/2000/svg" xmlns:xlink="http://www.w3.org/1999/xlink"
	 x="0px" y="0px" viewBox="0 0 478.1 477.9" xml:space="preserve">
<path fill="none" stroke="#2B2B2B" stroke-width="9.2052" stroke-miterlimit="10" d="M435.4,11.2C418,11.2,404,25.3,404,42.6v15.7
	h62.8V42.6C466.8,25.2,452.8,11.2,435.4,11.2z"/>
<polygon fill="#FFFFFF" points="389,414 70,414 74.1,31.8 99.3,11.8 389,11.2 "/>
<path fill="none" stroke="#2B2B2B" stroke-width="9.2052" stroke-miterlimit="10" d="M404,11.2H105.5c-17.4,0-31.4,14.1-31.4,31.4
	v424.2h298.5c17.4,0,31.4-14.1,31.4-31.4V42.6c0-17.4,14.1-31.4,31.4-31.4L404,11.2L404,11.2z"/>
<path fill="#D9D9D9" d="M383.1,16L366,15.7C321.2,178.8,222.3,315.8,78.6,405.2l-0.7,61.5l294.7-4.3c17.4,0,31.4-9.7,31.4-27V42.6
	c2.1-7.9,1-26.9,18.4-26.9L399.2,16H383.1z"/>
<path fill="#D5C7C1" stroke="#2B2B2B" stroke-width="9.2052" stroke-miterlimit="10" d="M341.2,435.3v-15.7h-330v15.7
	c0,17.4,14.1,31.4,31.4,31.4h329.9C355.2,466.7,341.2,452.7,341.2,435.3z"/>
<polygon fill="#F46B27" stroke="#2B2B2B" stroke-width="1.841" stroke-miterlimit="10" points="292.5,333.2 292.5,391.3 
	317.4,374.7 342.3,391.3 342.3,333.2 "/>
<path fill="#E65F1C" d="M294,341.1v15.7c13.9,10.7,33.2,10.7,47.1,0v-15.7H294z"/>
<circle fill="#FDB62F" stroke="#2B2B2B" stroke-width="1.841" stroke-miterlimit="10" cx="317.6" cy="309.6" r="39.3"/>
<circle fill="#FFA83D" cx="317.6" cy="309.6" r="23.6"/>
<rect x="188" y="63.5" fill="#333333" stroke="#2B2B2B" stroke-width="2.6036" stroke-miterlimit="10" width="102.1" height="7.9"/>
<rect x="108.6" y="102.2" fill="#333333" stroke="#2B2B2B" stroke-width="4.488" stroke-miterlimit="10" width="260.9" height="9.1"/>
<rect x="108.6" y="144.4" fill="#333333" stroke="#2B2B2B" stroke-width="4.488" stroke-miterlimit="10" width="260.9" height="9.1"/>
<rect x="145.1" y="189" fill="#333333" stroke="#2B2B2B" stroke-width="3.5979" stroke-miterlimit="10" width="188" height="8.1"/>
<rect x="106.5" y="311.6" fill="#333333" stroke="#2B2B2B" stroke-width="1.4692" stroke-miterlimit="10" width="31" height="8.2"/>
<rect x="156.5" y="311.4" fill="#333333" stroke="#2B2B2B" stroke-width="2.4567" stroke-miterlimit="10" width="82.5" height="8.7"/>
<rect x="108.6" y="229.6" fill="#333333" stroke="#2B2B2B" stroke-width="4.488" stroke-miterlimit="10" width="260.9" height="9.1"/>
</svg>
