<!--?xml version="1.0" encoding="utf-8"?-->
<!-- Generator: Adobe Illustrator 24.1.1, SVG Export Plug-In . SVG Version: 6.00 Build 0)  -->
<svg version="1.1" baseProfile="tiny" id="Layer_1" xmlns="http://www.w3.org/2000/svg" xmlns:xlink="http://www.w3.org/1999/xlink" x="0px" y="0px" viewBox="0 0 478.1 477.9" xml:space="preserve" style="">
<path fill="none" stroke="#2B2B2B" stroke-width="9.2052" stroke-miterlimit="10" d="M435.4,11.2C418,11.2,404,25.3,404,42.6v15.7
	h62.8V42.6C466.8,25.2,452.8,11.2,435.4,11.2z" class="czXVagFa_0"></path>
<path fill="#FFFFFF" d="M389,414L70,414L74.1,31.8L99.3,11.8L389,11.2Z" class="czXVagFa_1"></path>
<path fill="none" stroke="#2B2B2B" stroke-width="9.2052" stroke-miterlimit="10" d="M404,11.2H105.5c-17.4,0-31.4,14.1-31.4,31.4
	v424.2h298.5c17.4,0,31.4-14.1,31.4-31.4V42.6c0-17.4,14.1-31.4,31.4-31.4L404,11.2L404,11.2z" class="czXVagFa_2"></path>
<path fill="#D9D9D9" d="M383.1,16L366,15.7C321.2,178.8,222.3,315.8,78.6,405.2l-0.7,61.5l294.7-4.3c17.4,0,31.4-9.7,31.4-27V42.6
	c2.1-7.9,1-26.9,18.4-26.9L399.2,16H383.1z" class="czXVagFa_3"></path>
<path fill="#D5C7C1" stroke="#2B2B2B" stroke-width="9.2052" stroke-miterlimit="10" d="M341.2,435.3v-15.7h-330v15.7
	c0,17.4,14.1,31.4,31.4,31.4h329.9C355.2,466.7,341.2,452.7,341.2,435.3z" class="czXVagFa_4"></path>
<path fill="#F46B27" stroke="#2B2B2B" stroke-width="1.841" stroke-miterlimit="10" d="M292.5,333.2L292.5,391.3L
	317.4,374.7L342.3,391.3L342.3,333.2Z" class="czXVagFa_5"></path>
<path fill="#E65F1C" d="M294,341.1v15.7c13.9,10.7,33.2,10.7,47.1,0v-15.7H294z" class="czXVagFa_6"></path>
<path fill="#FDB62F" stroke="#2B2B2B" stroke-width="1.841" stroke-miterlimit="10" d="M278.3,309.6A39.3,39.3 0,1,1 356.90000000000003,309.6A39.3,39.3 0,1,1 278.3,309.6" class="czXVagFa_7"></path>
<path fill="#FFA83D" d="M294,309.6A23.6,23.6 0,1,1 341.20000000000005,309.6A23.6,23.6 0,1,1 294,309.6" class="czXVagFa_8"></path>
<path fill="#333333" stroke="#2B2B2B" stroke-width="2.6036" stroke-miterlimit="10" width="102.1" height="7.9" d="M188 63.5 L290.1 63.5 L290.1 71.4 L188 71.4 Z" class="czXVagFa_9"></path>
<path fill="#333333" stroke="#2B2B2B" stroke-width="4.488" stroke-miterlimit="10" width="260.9" height="9.1" d="M108.6 102.2 L369.5 102.2 L369.5 111.3 L108.6 111.3 Z" class="czXVagFa_10"></path>
<path fill="#333333" stroke="#2B2B2B" stroke-width="4.488" stroke-miterlimit="10" width="260.9" height="9.1" d="M108.6 144.4 L369.5 144.4 L369.5 153.5 L108.6 153.5 Z" class="czXVagFa_11"></path>
<path fill="#333333" stroke="#2B2B2B" stroke-width="3.5979" stroke-miterlimit="10" width="188" height="8.1" d="M145.1 189 L333.1 189 L333.1 197.1 L145.1 197.1 Z" class="czXVagFa_12"></path>
<path fill="#333333" stroke="#2B2B2B" stroke-width="1.4692" stroke-miterlimit="10" width="31" height="8.2" d="M106.5 311.6 L137.5 311.6 L137.5 319.8 L106.5 319.8 Z" class="czXVagFa_13"></path>
<path fill="#333333" stroke="#2B2B2B" stroke-width="2.4567" stroke-miterlimit="10" width="82.5" height="8.7" d="M156.5 311.4 L239 311.4 L239 320.09999999999997 L156.5 320.09999999999997 Z" class="czXVagFa_14"></path>
<path fill="#333333" stroke="#2B2B2B" stroke-width="4.488" stroke-miterlimit="10" width="260.9" height="9.1" d="M108.6 229.6 L369.5 229.6 L369.5 238.7 L108.6 238.7 Z" class="czXVagFa_15"></path>
<style data-made-with="vivus-instant">.czXVagFa_0{stroke-dasharray:193 195;stroke-dashoffset:194;animation:czXVagFa_draw 1666ms linear 0ms forwards;}.czXVagFa_1{stroke-dasharray:1426 1428;stroke-dashoffset:1427;animation:czXVagFa_draw 1666ms linear 55ms forwards;}.czXVagFa_2{stroke-dasharray:1594 1596;stroke-dashoffset:1595;animation:czXVagFa_draw 1666ms linear 111ms forwards;}.czXVagFa_3{stroke-dasharray:1385 1387;stroke-dashoffset:1386;animation:czXVagFa_draw 1666ms linear 166ms forwards;}.czXVagFa_4{stroke-dasharray:790 792;stroke-dashoffset:791;animation:czXVagFa_draw 1666ms linear 222ms forwards;}.czXVagFa_5{stroke-dasharray:226 228;stroke-dashoffset:227;animation:czXVagFa_draw 1666ms linear 277ms forwards;}.czXVagFa_6{stroke-dasharray:130 132;stroke-dashoffset:131;animation:czXVagFa_draw 1666ms linear 333ms forwards;}.czXVagFa_7{stroke-dasharray:247 249;stroke-dashoffset:248;animation:czXVagFa_draw 1666ms linear 388ms forwards;}.czXVagFa_8{stroke-dasharray:149 151;stroke-dashoffset:150;animation:czXVagFa_draw 1666ms linear 444ms forwards;}.czXVagFa_9{stroke-dasharray:220 222;stroke-dashoffset:221;animation:czXVagFa_draw 1666ms linear 500ms forwards;}.czXVagFa_10{stroke-dasharray:540 542;stroke-dashoffset:541;animation:czXVagFa_draw 1666ms linear 555ms forwards;}.czXVagFa_11{stroke-dasharray:540 542;stroke-dashoffset:541;animation:czXVagFa_draw 1666ms linear 611ms forwards;}.czXVagFa_12{stroke-dasharray:393 395;stroke-dashoffset:394;animation:czXVagFa_draw 1666ms linear 666ms forwards;}.czXVagFa_13{stroke-dasharray:79 81;stroke-dashoffset:80;animation:czXVagFa_draw 1666ms linear 722ms forwards;}.czXVagFa_14{stroke-dasharray:183 185;stroke-dashoffset:184;animation:czXVagFa_draw 1666ms linear 777ms forwards;}.czXVagFa_15{stroke-dasharray:540 542;stroke-dashoffset:541;animation:czXVagFa_draw 1666ms linear 833ms forwards;}@keyframes czXVagFa_draw{100%{stroke-dashoffset:0;}}@keyframes czXVagFa_fade{0%{stroke-opacity:1;}94.02985074626866%{stroke-opacity:1;}100%{stroke-opacity:0;}}</style></svg>
