<svg xmlns="http://www.w3.org/2000/svg" viewBox="0 0 510.001 510.001"><title>education</title><path d="M176.2,406.6H329.8a42.716,42.716,0,0,0,42.667-42.667V295.667A42.716,42.716,0,0,0,329.8,253H176.2a42.716,42.716,0,0,0-42.667,42.667v68.267A42.716,42.716,0,0,0,176.2,406.6Zm153.6-17.067H176.2a25.6,25.6,0,0,1-25.6-25.6h0V321.267h20.326l-10.9,21.786,15.275,7.629L190,321.268H355.4v42.667a25.6,25.6,0,0,1-25.6,25.6ZM176.2,270.068H329.8a25.6,25.6,0,0,1,25.6,25.6h0V304.2H150.6v-8.533A25.6,25.6,0,0,1,176.2,270.068Z" transform="translate(2 2.001)"/><path d="M247.377,233.827a8.543,8.543,0,0,0,11.247,0l68.267-59.733a8.535,8.535,0,0,0,.811-12.041,8.169,8.169,0,0,0-.811-.811l-68.267-59.733a8.543,8.543,0,0,0-11.247,0L179.11,161.242a8.535,8.535,0,0,0-.811,12.041,8.169,8.169,0,0,0,.811.811ZM253,119.275l55.305,48.393L253,216.061l-55.3-48.393Z" transform="translate(2 2.001)"/><rect x="229.401" y="152.602" width="17.067" height="34.133"/><rect x="263.534" y="152.602" width="17.067" height="34.133"/><path d="M457.8,432.2v22.187a11.948,11.948,0,0,1-11.947,11.947H406.6V432.2Z" transform="translate(2 2.001)" style="fill:#c7c7c7"/><path d="M457.8,454.388V295.668h34.133V425.136a17.07,17.07,0,0,1-5,12.066L462.8,461.334a17.712,17.712,0,0,1-12.066,5h-4.881A11.95,11.95,0,0,0,457.8,454.388Z" transform="translate(2 2.001)" style="fill:#e0e0e0"/><path d="M474.867,5.534a25.6,25.6,0,0,1,25.6,25.6h0V278.6l-8.533,17.067H457.8L449.268,278.6V14.068L457.8,5.535h17.067Z" transform="translate(2 2.001)" style="fill:#3e8cc7"/><path d="M31.134,5.534a25.6,25.6,0,0,0-25.6,25.6h0V278.6l8.533,17.067H48.2L56.733,278.6V14.068L48.2,5.535H31.134Z" transform="translate(2 2.001)" style="fill:#3e8cc7"/><path d="M48.2,432.2v22.187a11.948,11.948,0,0,0,11.947,11.947H99.4V432.2Z" transform="translate(2 2.001)" style="fill:#c7c7c7"/><path d="M48.2,454.388V295.668H14.067V425.136a17.07,17.07,0,0,0,5,12.066L43.2,461.334a17.675,17.675,0,0,0,12.066,5h4.881A11.95,11.95,0,0,1,48.2,454.388Z" transform="translate(2 2.001)" style="fill:#e0e0e0"/><path d="M390.549,17.566A25.6,25.6,0,0,1,412.258,5.534H457.8l-85.333,128-42.667-25.6Z" transform="translate(2 2.001)" style="fill:#4398d1"/><path d="M115.452,17.566A25.6,25.6,0,0,0,93.743,5.534H48.2l85.333,128,42.667-25.6Z" transform="translate(2 2.001)" style="fill:#4398d1"/><path d="M90.867,449.268a51.2,51.2,0,0,0,51.2,51.2H363.934a51.2,51.2,0,0,0,51.2-51.2h0V432.2H90.867Z" transform="translate(2 2.001)" style="fill:#75462e"/><path d="M312.734,73.8H193.267a102.405,102.405,0,0,0-102.4,102.4v256H415.134v-256A102.405,102.405,0,0,0,312.734,73.8Z" transform="translate(2 2.001)" style="fill:#de4c3c"/><path d="M235.934,5.534A34.135,34.135,0,0,0,201.8,39.667V73.8h34.133Z" transform="translate(2 2.001)" style="fill:#75462e"/><rect x="237.934" y="7.535" width="34.133" height="34.133" style="fill:#5c3724"/><path d="M270.067,5.534V73.8H304.2V39.668A34.133,34.133,0,0,0,270.068,5.534Z" transform="translate(2 2.001)" style="fill:#75462e"/><polygon points="186.734 169.669 255.001 109.935 323.267 169.669 255.001 229.402 186.734 169.669" style="fill:#fdb62f"/><path d="M176.2,399.6a35.769,35.769,0,0,1-35.667-35.675V295.667A35.771,35.771,0,0,1,176.209,260H329.8a35.769,35.769,0,0,1,35.667,35.675v68.259A35.77,35.77,0,0,1,329.793,399.6Zm-32.6-35.667a32.638,32.638,0,0,0,32.6,32.6H329.8a32.637,32.637,0,0,0,32.6-32.6V314.268H185.681l-13.509,27.025-2.748-1.373,12.831-25.653H143.6Zm32.6-100.866a32.637,32.637,0,0,0-32.6,32.6V311.2H362.4V295.668a32.637,32.637,0,0,0-32.6-32.6Z" transform="translate(2 2.001)" style="fill:none;stroke:#2b2b2b;stroke-miterlimit:10;stroke-width:8px"/><path d="M142.068,503A53.98,53.98,0,0,1,93.6,472.3l-1.626-3.43h-36.7a19.576,19.576,0,0,1-13.851-5.728L17.278,438.991a19.546,19.546,0,0,1-5.744-13.843V296.255L3.245,279.779a2.567,2.567,0,0,1-.245-1.1V31.133A28.164,28.164,0,0,1,31.134,3H93.743A27.819,27.819,0,0,1,117.59,16.207l.124.191,40.93,60.677,4.24-1.288a104.684,104.684,0,0,1,30.388-4.52h6v-31.6A36.772,36.772,0,0,1,235.94,3h34.127a36.77,36.77,0,0,1,36.667,36.674V71.262h6a104.6,104.6,0,0,1,30.377,4.519l4.242,1.29,41.154-61,.05-.08A27.661,27.661,0,0,1,412.083,3h62.784A28.167,28.167,0,0,1,503,31.134V278.6a2.663,2.663,0,0,1-.242,1.176l-8.291,16.479V425.134a19.54,19.54,0,0,1-5.729,13.842l-24.146,24.147a19.529,19.529,0,0,1-13.772,5.743H414.028L412.4,472.3A53.985,53.985,0,0,1,363.926,503ZM93.4,449.267a48.792,48.792,0,0,0,48.661,48.667H363.934A48.789,48.789,0,0,0,412.6,449.272V434.734H93.4Zm324.268,0a54.836,54.836,0,0,1-.615,7.636l-1.042,6.9h29.844c5.19,0,9.413,1.609,9.413-3.581V434.735h-37.6ZM50.734,460.221c0,5.19,4.223,3.58,9.413,3.58H89.993l-1.043-6.9a54.7,54.7,0,0,1-.616-7.69V434.735h-37.6ZM16.6,425.135A14.517,14.517,0,0,0,20.849,435.4l24.819,24.821V298.2H16.6ZM460.334,460.22l24.809-24.81a14.523,14.523,0,0,0,4.258-10.25V298.2H460.334ZM193.261,76.334a100.138,100.138,0,0,0-99.86,99.86V429.668H412.6V176.2a100.14,100.14,0,0,0-99.86-99.867Zm199.213,31.757,2.7,3.42a104.7,104.7,0,0,1,22.488,64.69V429.667h37.6V296.257l-8.289-16.478a2.537,2.537,0,0,1-.244-1.1V26.672ZM59.267,278.6a2.55,2.55,0,0,1-.243,1.178l-8.29,16.478v133.41h37.6V176.2a104.673,104.673,0,0,1,22.488-64.715l2.706-3.421L59.267,26.679ZM451.8,19.073V278l7.566,15.13h31L497.934,278V31.134A23.1,23.1,0,0,0,474.867,8.067H459.159ZM31.134,8.067A23.092,23.092,0,0,0,8.067,31.134V278l7.566,15.13h31L54.2,278V7ZM352.25,78.913l6.207,3.023a104.868,104.868,0,0,1,25.427,17.4l5.165,4.791,57.685-86.538,6.933-9.524H412.21A22.854,22.854,0,0,0,392.745,18.82ZM59.268,17.592,116.954,104.1l5.165-4.791a104.815,104.815,0,0,1,25.426-17.4l6.209-3.024L113.43,19.105A23.264,23.264,0,0,0,93.752,8.068H59.268ZM272.6,71.268h29.067v-31.6A31.671,31.671,0,0,0,280.6,9.981l-8-2.826Zm-34.133,0h29.067V42.2H238.467ZM225.4,9.981a31.667,31.667,0,0,0-21.068,29.663V71.268H233.4V7.154Zm13.065,27.153h29.067V8.068H238.467Z" transform="translate(2 2.001)" style="fill:none;stroke:#2b2b2b;stroke-miterlimit:10;stroke-width:10px"/><path d="M253,228.939a1.51,1.51,0,0,1-1.013-.379l-68.269-59.734c-.025-.023-.072-.063-.114-.107a1.55,1.55,0,0,1,.094-2.189l.013-.011,68.274-59.74a1.544,1.544,0,0,1,2.028,0l68.267,59.734c.026.023.073.063.115.107a1.55,1.55,0,0,1-.094,2.189l-.013.011-68.274,59.74A1.514,1.514,0,0,1,253,228.939Zm-65.935-61.271L253,225.362l65.935-57.694L253,109.974Z" transform="translate(2 2.001)" style="fill:none;stroke:#2b2b2b;stroke-miterlimit:10;stroke-width:7px"/><rect x="236.401" y="159.602" width="3.067" height="20.133" style="fill:none;stroke:#2b2b2b;stroke-miterlimit:10;stroke-width:3px"/><rect x="270.534" y="159.602" width="3.066" height="20.133" style="fill:none;stroke:#2b2b2b;stroke-miterlimit:10;stroke-width:3px"/></svg>