<svg xmlns="http://www.w3.org/2000/svg" viewBox="0 0 372.5 506.002" style=""><title>honors</title><path d="M290.1,36.7h59.7a17.092,17.092,0,0,1,17.1,17.084V112.4a17.187,17.187,0,0,1-8.5,14.6l-85.3,54.8V139.1L332.8,105V70.8H290.1Z" transform="translate(0 3.001)" style="fill:#fdb62f" class="oWESCRtz_0"></path><path width="17.1" height="34.1" style="fill:#fd7b2f" d="M290.1 39.701 L307.20000000000005 39.701 L307.20000000000005 73.801 L290.1 73.801 Z" class="oWESCRtz_1"></path><path style="fill:#fd7b2f" d="M307.2,122.501L273,142.101L273,184.701L307.2,162.901L307.2,122.501Z" class="oWESCRtz_2"></path><path d="M230.4,267.1H162.1a8.5,8.5,0,1,1,0-17h68.3a8.5,8.5,0,0,1,0,17Z" transform="translate(0 3.001)" style="fill:#ffa83d" class="oWESCRtz_3"></path><path d="M256,318.3H238.9a70.294,70.294,0,0,1-25.6-53V215.9H179.2v49.4a70.453,70.453,0,0,1-25.6,53H136.5a34.078,34.078,0,0,0-34.1,34.056v.044H290.1a34.078,34.078,0,0,0-34.056-34.1Z" transform="translate(0 3.001)" style="fill:#ffa83d" class="oWESCRtz_4"></path><path width="221.9" height="145.1" style="fill:#fdb62f" d="M85.3 355.401 L307.2 355.401 L307.2 500.501 L85.3 500.501 Z" class="oWESCRtz_5"></path><path width="34.1" height="34.1" style="fill:#fd7b2f" d="M179.2 210.301 L213.29999999999998 210.301 L213.29999999999998 244.40099999999998 L179.2 244.40099999999998 Z" class="oWESCRtz_6"></path><path d="M102.4,2.5H290.1v128a93.912,93.912,0,0,1-93.9,93.9h0a93.912,93.912,0,0,1-93.9-93.9l.1-128Z" transform="translate(0 3.001)" style="fill:#fdb62f" class="oWESCRtz_7"></path><path width="162.1" height="17.1" style="fill:#fd7b2f" d="M102.4 31.101 L264.5 31.101 L264.5 48.201 L102.4 48.201 Z" class="oWESCRtz_8"></path><path style="fill:#d9d9d9" d="M179.2,99.401L196.2,73.801L213.3,99.401L247.4,99.401L221.8,125.001L230.4,159.101L196.2,142.101L162.1,159.101L170.6,125.001L145,99.401L179.2,99.401Z" class="oWESCRtz_9"></path><path d="M102.4,36.7H42.7A17.092,17.092,0,0,0,25.6,53.784V112.4A17.187,17.187,0,0,0,34.1,127l85.3,54.8V139.1L59.7,104.9V70.8h42.7Z" transform="translate(0 3.001)" style="fill:#fdb62f" class="oWESCRtz_10"></path><path style="fill:#ffa83d" d="M68.2,201.801L42.6,201.801L42.6,176.201L25.6,176.201L25.6,201.801L0,201.801L0,218.901L25.6,218.901L25.6,244.501L42.6,244.501L42.6,218.901L68.2,218.901L68.2,201.801Z" class="oWESCRtz_11"></path><path d="M324.2,318.3h0a41.416,41.416,0,0,0-34.1-34.1h0a41.416,41.416,0,0,0,34.1-34.1h0a41.416,41.416,0,0,0,34.1,34.1h0A41.416,41.416,0,0,0,324.2,318.3Z" transform="translate(0 3.001)" style="fill:#fdb62f" class="oWESCRtz_12"></path><path d="M115.6,497.5H307.2V352.4H281A300.534,300.534,0,0,1,115.6,497.5Z" transform="translate(0 3.001)" style="fill:#ffa83d" class="oWESCRtz_13"></path><path width="119.5" height="76.8" style="fill:#d9d9d9" d="M136.5 389.501 L256 389.501 L256 466.301 L136.5 466.301 Z" class="oWESCRtz_14"></path><path width="17.1" height="17.1" style="fill:#bdbdbd" d="M162.1 423.701 L179.2 423.701 L179.2 440.80100000000004 L162.1 440.80100000000004 Z" class="oWESCRtz_15"></path><path width="34.1" height="17.1" style="fill:#bdbdbd" d="M196.2 423.701 L230.29999999999998 423.701 L230.29999999999998 440.80100000000004 L196.2 440.80100000000004 Z" class="oWESCRtz_16"></path><path d="M230.4,156.7a.366.366,0,0,1-.3-.1l-33.9-16.9L162,156.4a.348.348,0,0,0-.2.1.366.366,0,0,1-.3-.1.6.6,0,0,1-.1-.4l8.7-33.7L144.7,96.9a.441.441,0,0,1-.1-.5.511.511,0,0,1,.5-.4h33.8l17-25.3a.1.1,0,0,1,.1-.1h0a.366.366,0,0,1,.3-.1.648.648,0,0,1,.5.2l17,25.3h34a.551.551,0,0,1,.5.3.593.593,0,0,1-.1.7l-25.5,25.2,8.4,33.8v.1a.472.472,0,0,1-.442.5.561.561,0,0,1-.058,0Zm-33.7-18c.1,0,.2,0,.2.1l32.6,16.3-8.2-33a.441.441,0,0,1,.1-.5L246.2,97h-33a.762.762,0,0,1-.4-.2L196.4,66,179.6,96.6a.551.551,0,0,1-.5.3H145.8l25.4,24.7a.441.441,0,0,1,.1.5l-7.8,32.7,32.8-16A.756.756,0,0,1,196.7,138.7Z" transform="translate(0 3.001)" style="fill:none;stroke:#2b2b2b;stroke-miterlimit:10;stroke-width:7px" class="oWESCRtz_17"></path><path d="M85.3,498a.472.472,0,0,1-.5-.442.561.561,0,0,1,0-.058V352.4a.472.472,0,0,1,.442-.5H307.2a.472.472,0,0,1,.5.442.561.561,0,0,1,0,.058V497.5a.472.472,0,0,1-.442.5H85.3Zm.5-1.1H306.6v-144H85.8Zm16.7-151.4a34.779,34.779,0,0,1,34-27.7h16.7l2.3-2a69.76,69.76,0,0,0,23.2-48.3l.4-8.4H162.2a.5.5,0,0,1,0-1h16.5V223.5l-6-1.5a95.147,95.147,0,0,1-59.3-45.7l-5.6-10-3.2-13.2a96.569,96.569,0,0,1-2.6-17.9l-.2-4.3L59.7,105.5a.551.551,0,0,1-.3-.5V70.8a.472.472,0,0,1,.442-.5H102V37.2H42.8A16.516,16.516,0,0,0,26.3,53.7v58.6a16.5,16.5,0,0,0,8.1,14.2l64.1,38.6v1.2L33.8,127.4a17.67,17.67,0,0,1-8.6-15.1V53.7A17.626,17.626,0,0,1,42.8,36.1H102V2.5a.472.472,0,0,1,.442-.5H290.2a.472.472,0,0,1,.5.442.561.561,0,0,1,0,.058V36.1h59.2a17.626,17.626,0,0,1,17.6,17.6v58.6a17.8,17.8,0,0,1-8.9,15l-64.8,39v-1.1l64.6-38.7a16.5,16.5,0,0,0,8.1-14.2V53.7A16.516,16.516,0,0,0,350,37.2H290.8V70.3h42.1a.472.472,0,0,1,.5.442.561.561,0,0,1,0,.058v34.3a.517.517,0,0,1-.2.4L291,130.8l-.3,4.2a99.479,99.479,0,0,1-2.8,17.9l-3.4,13.3-5.6,10.1a95.85,95.85,0,0,1-59,45.7l-6,1.6V258h16.5a.5.5,0,0,1,0,1h-17l.4,8.4a69.45,69.45,0,0,0,23.3,48.3l2.3,2H256a34.88,34.88,0,0,1,34,27.7l1.1,5.2-3.3-9.4a33.654,33.654,0,0,0-31.7-22.4h-17c-.1,0-.2-.1-.3-.1l-.1-.1a70.741,70.741,0,0,1-25.8-51.8l-.3-7.7H180.1l-.3,7.7A67.984,67.984,0,0,1,166.4,305l-9.5,12.8h31.4v1.1H136.5a33.751,33.751,0,0,0-31.7,22.4l-3.3,9.4ZM179.7,258h33.1V224.9H179.7ZM102.9,130.5a93.3,93.3,0,0,0,186.6,0V3.1H102.9V36.2H256.5v1.1H102.9ZM60.2,104.6l41.6,25V71.3H60.2Zm230.4,25,41.6-25V71.3H290.6Z" transform="translate(0 3.001)" style="fill:none;stroke:#2b2b2b;stroke-miterlimit:10;stroke-width:10px" class="oWESCRtz_18"></path><path d="M136.5,463.9a.472.472,0,0,1-.5-.442.561.561,0,0,1,0-.058V386.6a.472.472,0,0,1,.442-.5.561.561,0,0,1,.058,0H256a.472.472,0,0,1,.5.442.561.561,0,0,1,0,.058v76.8a.472.472,0,0,1-.442.5.561.561,0,0,1-.058,0Zm.5-1.1H255.4V387.1H137Z" transform="translate(0 3.001)" style="fill:none;stroke:#2b2b2b;stroke-miterlimit:10;stroke-width:10px" class="oWESCRtz_19"></path><path width="17.1" height="17.1" style="fill:none;stroke:#2b2b2b;stroke-miterlimit:10;stroke-width:3px" d="M162.1 423.701 L179.2 423.701 L179.2 440.80100000000004 L162.1 440.80100000000004 Z" class="oWESCRtz_20"></path><path width="34.1" height="17.1" style="fill:none;stroke:#2b2b2b;stroke-miterlimit:10;stroke-width:3px" d="M196.2 423.701 L230.29999999999998 423.701 L230.29999999999998 440.80100000000004 L196.2 440.80100000000004 Z" class="oWESCRtz_21"></path><path style="fill:none;stroke:#2b2b2b;stroke-miterlimit:10;stroke-width:8px" d="M33.6,236.501L33.6,210.901L8,210.901L8,209.801L33.6,209.801L33.6,184.201L34.6,184.201L34.6,209.801L60.2,209.801L60.2,210.901L34.6,210.901L34.6,236.501L33.6,236.501Z" class="oWESCRtz_22"></path><path d="M324.2,320.2a.472.472,0,0,1-.5-.442.561.561,0,0,1,0-.058V319l-.1-.7a41.021,41.021,0,0,0-33.5-33.5l-.7-.1h-.7a.5.5,0,0,1,0-1h.7l.7-.1a41.021,41.021,0,0,0,33.5-33.5l.1-.7v-.7a.5.5,0,0,1,1,0v.7l.1.7a41.021,41.021,0,0,0,33.5,33.5l.7.1h.7a.5.5,0,0,1,0,1H359l-.7.1a41.021,41.021,0,0,0-33.5,33.5l-.1.7v.7C324.8,319.9,324.5,320.2,324.2,320.2Zm-6.5-52.8a41.189,41.189,0,0,1-10.2,10.2l-9.4,6.6,9.4,6.6A41.189,41.189,0,0,1,317.7,301l6.6,9.4,6.6-9.4a41.189,41.189,0,0,1,10.2-10.2l9.4-6.6-9.4-6.6a41.189,41.189,0,0,1-10.2-10.2l-6.6-9.4Z" transform="translate(0 3.001)" style="fill:none;stroke:#2b2b2b;stroke-miterlimit:10;stroke-width:10px" class="oWESCRtz_23"></path><style data-made-with="vivus-instant">.oWESCRtz_0{stroke-dasharray:487 489;stroke-dashoffset:488;animation:oWESCRtz_draw 1666ms linear 0ms forwards;}.oWESCRtz_1{stroke-dasharray:103 105;stroke-dashoffset:104;animation:oWESCRtz_draw 1666ms linear 36ms forwards;}.oWESCRtz_2{stroke-dasharray:163 165;stroke-dashoffset:164;animation:oWESCRtz_draw 1666ms linear 72ms forwards;}.oWESCRtz_3{stroke-dasharray:191 193;stroke-dashoffset:192;animation:oWESCRtz_draw 1666ms linear 108ms forwards;}.oWESCRtz_4{stroke-dasharray:584 586;stroke-dashoffset:585;animation:oWESCRtz_draw 1666ms linear 144ms forwards;}.oWESCRtz_5{stroke-dasharray:734 736;stroke-dashoffset:735;animation:oWESCRtz_draw 1666ms linear 181ms forwards;}.oWESCRtz_6{stroke-dasharray:137 139;stroke-dashoffset:138;animation:oWESCRtz_draw 1666ms linear 217ms forwards;}.oWESCRtz_7{stroke-dasharray:739 741;stroke-dashoffset:740;animation:oWESCRtz_draw 1666ms linear 253ms forwards;}.oWESCRtz_8{stroke-dasharray:359 361;stroke-dashoffset:360;animation:oWESCRtz_draw 1666ms linear 289ms forwards;}.oWESCRtz_9{stroke-dasharray:349 351;stroke-dashoffset:350;animation:oWESCRtz_draw 1666ms linear 326ms forwards;}.oWESCRtz_10{stroke-dasharray:487 489;stroke-dashoffset:488;animation:oWESCRtz_draw 1666ms linear 362ms forwards;}.oWESCRtz_11{stroke-dasharray:273 275;stroke-dashoffset:274;animation:oWESCRtz_draw 1666ms linear 398ms forwards;}.oWESCRtz_12{stroke-dasharray:206 208;stroke-dashoffset:207;animation:oWESCRtz_draw 1666ms linear 434ms forwards;}.oWESCRtz_13{stroke-dasharray:589 591;stroke-dashoffset:590;animation:oWESCRtz_draw 1666ms linear 471ms forwards;}.oWESCRtz_14{stroke-dasharray:393 395;stroke-dashoffset:394;animation:oWESCRtz_draw 1666ms linear 507ms forwards;}.oWESCRtz_15{stroke-dasharray:69 71;stroke-dashoffset:70;animation:oWESCRtz_draw 1666ms linear 543ms forwards;}.oWESCRtz_16{stroke-dasharray:103 105;stroke-dashoffset:104;animation:oWESCRtz_draw 1666ms linear 579ms forwards;}.oWESCRtz_17{stroke-dasharray:703 705;stroke-dashoffset:704;animation:oWESCRtz_draw 1666ms linear 615ms forwards;}.oWESCRtz_18{stroke-dasharray:5575 5577;stroke-dashoffset:5576;animation:oWESCRtz_draw 1666ms linear 652ms forwards;}.oWESCRtz_19{stroke-dasharray:784 786;stroke-dashoffset:785;animation:oWESCRtz_draw 1666ms linear 688ms forwards;}.oWESCRtz_20{stroke-dasharray:69 71;stroke-dashoffset:70;animation:oWESCRtz_draw 1666ms linear 724ms forwards;}.oWESCRtz_21{stroke-dasharray:103 105;stroke-dashoffset:104;animation:oWESCRtz_draw 1666ms linear 760ms forwards;}.oWESCRtz_22{stroke-dasharray:210 212;stroke-dashoffset:211;animation:oWESCRtz_draw 1666ms linear 797ms forwards;}.oWESCRtz_23{stroke-dasharray:370 372;stroke-dashoffset:371;animation:oWESCRtz_draw 1666ms linear 833ms forwards;}@keyframes oWESCRtz_draw{100%{stroke-dashoffset:0;}}@keyframes oWESCRtz_fade{0%{stroke-opacity:1;}94.02985074626866%{stroke-opacity:1;}100%{stroke-opacity:0;}}</style></svg>