<svg xmlns="http://www.w3.org/2000/svg" viewBox="0 0 508.122 457.68"><title>press</title><rect x="110.3" y="145.939" width="127.2" height="118.7" style="fill:#e8594a"/><polygon points="500.4 230.739 441 239.239 441 171.339 500.4 179.839 500.4 230.739" style="fill:#e0d2c1"/><rect x="59.4" y="162.939" width="50.9" height="84.8" style="fill:#c44639"/><path d="M245,302.8H144.2V404.6h76.3a16.986,16.986,0,0,0,17-16.972V336.7H246a16.986,16.986,0,0,0,17-16.972V319.7a28.419,28.419,0,0,0-.2-2.9A17.845,17.845,0,0,0,245,302.8Z" transform="translate(0 4.243)" style="fill:#fec9a3"/><path d="M220.5,370.7H144.2v33.9h76.3a16.986,16.986,0,0,0,17-16.972V353.7a16.986,16.986,0,0,1-16.972,17Z" transform="translate(0 4.243)" style="fill:#fabd91"/><rect y="307.039" width="118.7" height="101.8" style="fill:#4398d1"/><rect y="374.939" width="118.7" height="33.9" style="fill:#3e8fc9"/><rect x="110.3" y="307.039" width="33.9" height="101.8" style="fill:#f0e4d6"/><rect x="67.8" y="366.439" width="17" height="17" style="fill:#3685ba"/><rect x="135.7" y="196.839" width="17" height="33.9" style="fill:#c44639"/><rect x="169.6" y="196.839" width="17" height="33.9" style="fill:#c44639"/><path d="M419.8,39.9a21.211,21.211,0,0,0-21.2,21.2V82.3L237.5,141.7V260.4l161.1,59.4V341a21.2,21.2,0,1,0,42.4.025V61.1A21.211,21.211,0,0,0,419.8,39.9Z" transform="translate(0 4.243)" style="fill:#f0e4d6"/><path d="M266,270.9l132.6,48.9V341a21.2,21.2,0,1,0,42.4.025V89.5C398,185,311,245,266,270.9Z" transform="translate(0 4.243)" style="fill:#e8dccf"/><polygon points="203.5 307.039 152.7 307.039 144.2 264.639 195.1 264.639 203.5 307.039" style="fill:#f0e4d6"/><polygon points="229 451.239 178.1 451.239 169.6 408.839 220.5 408.839 229 451.239" style="fill:#f0e4d6"/><rect x="110.3" y="230.739" width="127.2" height="33.9" style="fill:#d65245"/><polygon points="198.5 281.639 195.1 264.639 144.2 264.639 147.6 281.639 198.5 281.639" style="fill:#e0d2c1"/><rect x="75.8" y="374.439" width="1" height="1" style="fill:none;stroke:#2b2b2b;stroke-miterlimit:10;stroke-width:11px"/><path d="M178.1,447.5a.665.665,0,0,1-.5-.4l-8.4-42H8v-1H109.8V303.3H8v-1H152.1l-8.3-41.4H110.3a.472.472,0,0,1-.5-.442.561.561,0,0,1,0-.058V243.9H59.4a.472.472,0,0,1-.5-.442.561.561,0,0,1,0-.058V158.6a.472.472,0,0,1,.442-.5.561.561,0,0,1,.058,0h50.4V141.6a.472.472,0,0,1,.442-.5.561.561,0,0,1,.058,0H237.4L398.1,81.9V61.1a21.7,21.7,0,0,1,43.4-.027V166.7l59,8.4a.457.457,0,0,1,.4.5v50.9a.665.665,0,0,1-.4.5l-59,8.4V341a21.7,21.7,0,0,1-43.4.027V320.2L237.3,261H195.6l8.3,41.4h41.4A18.189,18.189,0,0,1,263.1,317a13.2,13.2,0,0,1,.2,2.8,17.413,17.413,0,0,1-17.4,17.4h-8v50.4a17.372,17.372,0,0,1-10.6,16l-6,2.5,8.1,40.7v.1a.472.472,0,0,1-.442.5H178.1Zm.4-1h49.9l-8.3-41.4H170.2Zm-33.8-42.4h75.8A16.516,16.516,0,0,0,237,387.6V336.7a.472.472,0,0,1,.442-.5.561.561,0,0,1,.058,0H246c.9,0,1.9-.1,2.9-.2a16.512,16.512,0,0,0,13.4-19.1v-.3l-.1-.3a17.214,17.214,0,0,0-16.7-13.1H144.7Zm-34,0h33V303.3h-33ZM419.8,40.4a20.741,20.741,0,0,0-20.7,20.7V341a20.7,20.7,0,1,0,41.4.024V61.1A20.741,20.741,0,0,0,419.8,40.4ZM237.9,142V260l160.2,59V83ZM153.1,302.3H203l-8.3-41.4H144.8Zm-42.4-42.4H237V142.2H110.7ZM59.8,243h49.9V159.2H59.8Zm381.7-8.6,58.4-8.3V176l-58.4-8.3Z" transform="translate(0 4.243)" style="fill:none;stroke:#2b2b2b;stroke-miterlimit:10;stroke-width:10px"/><rect x="143.7" y="204.839" width="1" height="17.9" style="fill:none;stroke:#2b2b2b;stroke-miterlimit:10;stroke-width:4px"/><rect x="177.6" y="204.839" width="1" height="17.9" style="fill:none;stroke:#2b2b2b;stroke-miterlimit:10;stroke-width:4px"/><rect x="472.801" y="107.286" width="29.699" height="1" transform="translate(-5.142 193.126) rotate(-21.809)" style="fill:none;stroke:#2b2b2b;stroke-miterlimit:10;stroke-width:10px"/><rect x="467.404" y="13.995" width="32" height="1" transform="translate(131.336 350.307) rotate(-45)" style="fill:none;stroke:#2b2b2b;stroke-miterlimit:10;stroke-width:10px"/><rect x="487.128" y="279.499" width="1" height="29.699" transform="translate(33.294 642.107) rotate(-68.209)" style="fill:none;stroke:#2b2b2b;stroke-miterlimit:10;stroke-width:10px"/><rect x="482.94" y="371.684" width="1" height="32" transform="translate(-132.586 459.196) rotate(-44.959)" style="fill:none;stroke:#2b2b2b;stroke-miterlimit:10;stroke-width:10px"/></svg>