<svg xmlns="http://www.w3.org/2000/svg" viewBox="0 0 508.122 457.68" style=""><title>press</title><path width="127.2" height="118.7" style="fill:#e8594a" d="M110.3 145.939 L237.5 145.939 L237.5 264.639 L110.3 264.639 Z" class="CdOcWKyx_0"></path><path style="fill:#e0d2c1" d="M500.4,230.739L441,239.239L441,171.339L500.4,179.839L500.4,230.739Z" class="CdOcWKyx_1"></path><path width="50.9" height="84.8" style="fill:#c44639" d="M59.4 162.939 L110.3 162.939 L110.3 247.73899999999998 L59.4 247.73899999999998 Z" class="CdOcWKyx_2"></path><path d="M245,302.8H144.2V404.6h76.3a16.986,16.986,0,0,0,17-16.972V336.7H246a16.986,16.986,0,0,0,17-16.972V319.7a28.419,28.419,0,0,0-.2-2.9A17.845,17.845,0,0,0,245,302.8Z" transform="translate(0 4.243)" style="fill:#fec9a3" class="CdOcWKyx_3"></path><path d="M220.5,370.7H144.2v33.9h76.3a16.986,16.986,0,0,0,17-16.972V353.7a16.986,16.986,0,0,1-16.972,17Z" transform="translate(0 4.243)" style="fill:#fabd91" class="CdOcWKyx_4"></path><path width="118.7" height="101.8" style="fill:#4398d1" d="M0 307.039 L118.7 307.039 L118.7 408.839 L0 408.839 Z" class="CdOcWKyx_5"></path><path width="118.7" height="33.9" style="fill:#3e8fc9" d="M0 374.939 L118.7 374.939 L118.7 408.839 L0 408.839 Z" class="CdOcWKyx_6"></path><path width="33.9" height="101.8" style="fill:#f0e4d6" d="M110.3 307.039 L144.2 307.039 L144.2 408.839 L110.3 408.839 Z" class="CdOcWKyx_7"></path><path width="17" height="17" style="fill:#3685ba" d="M67.8 366.439 L84.8 366.439 L84.8 383.439 L67.8 383.439 Z" class="CdOcWKyx_8"></path><path width="17" height="33.9" style="fill:#c44639" d="M135.7 196.839 L152.7 196.839 L152.7 230.739 L135.7 230.739 Z" class="CdOcWKyx_9"></path><path width="17" height="33.9" style="fill:#c44639" d="M169.6 196.839 L186.6 196.839 L186.6 230.739 L169.6 230.739 Z" class="CdOcWKyx_10"></path><path d="M419.8,39.9a21.211,21.211,0,0,0-21.2,21.2V82.3L237.5,141.7V260.4l161.1,59.4V341a21.2,21.2,0,1,0,42.4.025V61.1A21.211,21.211,0,0,0,419.8,39.9Z" transform="translate(0 4.243)" style="fill:#f0e4d6" class="CdOcWKyx_11"></path><path d="M266,270.9l132.6,48.9V341a21.2,21.2,0,1,0,42.4.025V89.5C398,185,311,245,266,270.9Z" transform="translate(0 4.243)" style="fill:#e8dccf" class="CdOcWKyx_12"></path><path style="fill:#f0e4d6" d="M203.5,307.039L152.7,307.039L144.2,264.639L195.1,264.639L203.5,307.039Z" class="CdOcWKyx_13"></path><path style="fill:#f0e4d6" d="M229,451.239L178.1,451.239L169.6,408.839L220.5,408.839L229,451.239Z" class="CdOcWKyx_14"></path><path width="127.2" height="33.9" style="fill:#d65245" d="M110.3 230.739 L237.5 230.739 L237.5 264.639 L110.3 264.639 Z" class="CdOcWKyx_15"></path><path style="fill:#e0d2c1" d="M198.5,281.639L195.1,264.639L144.2,264.639L147.6,281.639L198.5,281.639Z" class="CdOcWKyx_16"></path><path width="1" height="1" style="fill:none;stroke:#2b2b2b;stroke-miterlimit:10;stroke-width:11px" d="M75.8 374.439 L76.8 374.439 L76.8 375.439 L75.8 375.439 Z" class="CdOcWKyx_17"></path><path d="M178.1,447.5a.665.665,0,0,1-.5-.4l-8.4-42H8v-1H109.8V303.3H8v-1H152.1l-8.3-41.4H110.3a.472.472,0,0,1-.5-.442.561.561,0,0,1,0-.058V243.9H59.4a.472.472,0,0,1-.5-.442.561.561,0,0,1,0-.058V158.6a.472.472,0,0,1,.442-.5.561.561,0,0,1,.058,0h50.4V141.6a.472.472,0,0,1,.442-.5.561.561,0,0,1,.058,0H237.4L398.1,81.9V61.1a21.7,21.7,0,0,1,43.4-.027V166.7l59,8.4a.457.457,0,0,1,.4.5v50.9a.665.665,0,0,1-.4.5l-59,8.4V341a21.7,21.7,0,0,1-43.4.027V320.2L237.3,261H195.6l8.3,41.4h41.4A18.189,18.189,0,0,1,263.1,317a13.2,13.2,0,0,1,.2,2.8,17.413,17.413,0,0,1-17.4,17.4h-8v50.4a17.372,17.372,0,0,1-10.6,16l-6,2.5,8.1,40.7v.1a.472.472,0,0,1-.442.5H178.1Zm.4-1h49.9l-8.3-41.4H170.2Zm-33.8-42.4h75.8A16.516,16.516,0,0,0,237,387.6V336.7a.472.472,0,0,1,.442-.5.561.561,0,0,1,.058,0H246c.9,0,1.9-.1,2.9-.2a16.512,16.512,0,0,0,13.4-19.1v-.3l-.1-.3a17.214,17.214,0,0,0-16.7-13.1H144.7Zm-34,0h33V303.3h-33ZM419.8,40.4a20.741,20.741,0,0,0-20.7,20.7V341a20.7,20.7,0,1,0,41.4.024V61.1A20.741,20.741,0,0,0,419.8,40.4ZM237.9,142V260l160.2,59V83ZM153.1,302.3H203l-8.3-41.4H144.8Zm-42.4-42.4H237V142.2H110.7ZM59.8,243h49.9V159.2H59.8Zm381.7-8.6,58.4-8.3V176l-58.4-8.3Z" transform="translate(0 4.243)" style="fill:none;stroke:#2b2b2b;stroke-miterlimit:10;stroke-width:10px" class="CdOcWKyx_18"></path><path width="1" height="17.9" style="fill:none;stroke:#2b2b2b;stroke-miterlimit:10;stroke-width:4px" d="M143.7 204.839 L144.7 204.839 L144.7 222.739 L143.7 222.739 Z" class="CdOcWKyx_19"></path><path width="1" height="17.9" style="fill:none;stroke:#2b2b2b;stroke-miterlimit:10;stroke-width:4px" d="M177.6 204.839 L178.6 204.839 L178.6 222.739 L177.6 222.739 Z" class="CdOcWKyx_20"></path><path width="29.699" height="1" transform="translate(-5.142 193.126) rotate(-21.809)" style="fill:none;stroke:#2b2b2b;stroke-miterlimit:10;stroke-width:10px" d="M472.801 107.286 L502.5 107.286 L502.5 108.286 L472.801 108.286 Z" class="CdOcWKyx_21"></path><path width="32" height="1" transform="translate(131.336 350.307) rotate(-45)" style="fill:none;stroke:#2b2b2b;stroke-miterlimit:10;stroke-width:10px" d="M467.404 13.995 L499.404 13.995 L499.404 14.995 L467.404 14.995 Z" class="CdOcWKyx_22"></path><path width="1" height="29.699" transform="translate(33.294 642.107) rotate(-68.209)" style="fill:none;stroke:#2b2b2b;stroke-miterlimit:10;stroke-width:10px" d="M487.128 279.499 L488.128 279.499 L488.128 309.19800000000004 L487.128 309.19800000000004 Z" class="CdOcWKyx_23"></path><path width="1" height="32" transform="translate(-132.586 459.196) rotate(-44.959)" style="fill:none;stroke:#2b2b2b;stroke-miterlimit:10;stroke-width:10px" d="M482.94 371.684 L483.94 371.684 L483.94 403.684 L482.94 403.684 Z" class="CdOcWKyx_24"></path><style data-made-with="vivus-instant">.CdOcWKyx_0{stroke-dasharray:492 494;stroke-dashoffset:493;animation:CdOcWKyx_draw 1666ms linear 0ms forwards;}.CdOcWKyx_1{stroke-dasharray:239 241;stroke-dashoffset:240;animation:CdOcWKyx_draw 1666ms linear 34ms forwards;}.CdOcWKyx_2{stroke-dasharray:272 274;stroke-dashoffset:273;animation:CdOcWKyx_draw 1666ms linear 69ms forwards;}.CdOcWKyx_3{stroke-dasharray:420 422;stroke-dashoffset:421;animation:CdOcWKyx_draw 1666ms linear 104ms forwards;}.CdOcWKyx_4{stroke-dasharray:274 276;stroke-dashoffset:275;animation:CdOcWKyx_draw 1666ms linear 138ms forwards;}.CdOcWKyx_5{stroke-dasharray:441 443;stroke-dashoffset:442;animation:CdOcWKyx_draw 1666ms linear 173ms forwards;}.CdOcWKyx_6{stroke-dasharray:306 308;stroke-dashoffset:307;animation:CdOcWKyx_draw 1666ms linear 208ms forwards;}.CdOcWKyx_7{stroke-dasharray:272 274;stroke-dashoffset:273;animation:CdOcWKyx_draw 1666ms linear 243ms forwards;}.CdOcWKyx_8{stroke-dasharray:68 70;stroke-dashoffset:69;animation:CdOcWKyx_draw 1666ms linear 277ms forwards;}.CdOcWKyx_9{stroke-dasharray:102 104;stroke-dashoffset:103;animation:CdOcWKyx_draw 1666ms linear 312ms forwards;}.CdOcWKyx_10{stroke-dasharray:102 104;stroke-dashoffset:103;animation:CdOcWKyx_draw 1666ms linear 347ms forwards;}.CdOcWKyx_11{stroke-dasharray:918 920;stroke-dashoffset:919;animation:CdOcWKyx_draw 1666ms linear 381ms forwards;}.CdOcWKyx_12{stroke-dasharray:737 739;stroke-dashoffset:738;animation:CdOcWKyx_draw 1666ms linear 416ms forwards;}.CdOcWKyx_13{stroke-dasharray:189 191;stroke-dashoffset:190;animation:CdOcWKyx_draw 1666ms linear 451ms forwards;}.CdOcWKyx_14{stroke-dasharray:189 191;stroke-dashoffset:190;animation:CdOcWKyx_draw 1666ms linear 486ms forwards;}.CdOcWKyx_15{stroke-dasharray:323 325;stroke-dashoffset:324;animation:CdOcWKyx_draw 1666ms linear 520ms forwards;}.CdOcWKyx_16{stroke-dasharray:137 139;stroke-dashoffset:138;animation:CdOcWKyx_draw 1666ms linear 555ms forwards;}.CdOcWKyx_17{stroke-dasharray:4 6;stroke-dashoffset:5;animation:CdOcWKyx_draw 1666ms linear 590ms forwards;}.CdOcWKyx_18{stroke-dasharray:5770 5772;stroke-dashoffset:5771;animation:CdOcWKyx_draw 1666ms linear 625ms forwards;}.CdOcWKyx_19{stroke-dasharray:38 40;stroke-dashoffset:39;animation:CdOcWKyx_draw 1666ms linear 659ms forwards;}.CdOcWKyx_20{stroke-dasharray:38 40;stroke-dashoffset:39;animation:CdOcWKyx_draw 1666ms linear 694ms forwards;}.CdOcWKyx_21{stroke-dasharray:62 64;stroke-dashoffset:63;animation:CdOcWKyx_draw 1666ms linear 729ms forwards;}.CdOcWKyx_22{stroke-dasharray:66 68;stroke-dashoffset:67;animation:CdOcWKyx_draw 1666ms linear 763ms forwards;}.CdOcWKyx_23{stroke-dasharray:62 64;stroke-dashoffset:63;animation:CdOcWKyx_draw 1666ms linear 798ms forwards;}.CdOcWKyx_24{stroke-dasharray:66 68;stroke-dashoffset:67;animation:CdOcWKyx_draw 1666ms linear 833ms forwards;}@keyframes CdOcWKyx_draw{100%{stroke-dashoffset:0;}}@keyframes CdOcWKyx_fade{0%{stroke-opacity:1;}94.02985074626866%{stroke-opacity:1;}100%{stroke-opacity:0;}}</style></svg>