<svg xmlns="http://www.w3.org/2000/svg" viewBox="0 0 461.264 590.4"><title>projects</title><path d="M381.663,312l19.9,268.3h-218.7l19.9-268.3" transform="translate(3 3)" style="fill:#3269a1"/><path d="M3.963,33.7l29.8-29.8,159,159-29.8,29.8Z" transform="translate(3 3)" style="fill:#4398d1"/><path d="M162.963,192.8l29.8-29.8,44.7,44.7-29.8,29.8Z" transform="translate(3 3)" style="fill:#dadddf"/><path d="M292.163,182.8a48.433,48.433,0,0,0-39.8-39.8,48.433,48.433,0,0,0,39.8-39.8,48.44,48.44,0,0,0,39.7,39.8A48.555,48.555,0,0,0,292.163,182.8Z" transform="translate(3 3)" style="fill:#e34b87"/><path d="M381.663,103.3a48.433,48.433,0,0,0-39.8-39.8,48.433,48.433,0,0,0,39.8-39.8,48.44,48.44,0,0,0,39.7,39.8A48.437,48.437,0,0,0,381.663,103.3Z" transform="translate(3 3)" style="fill:#e34b87"/><path d="M222.563,539.8l7.4-89.4,19.8,1.7-7.4,89.4Z" transform="translate(3 3)" style="fill:#4398d1"/><path d="M231.263,430.7l1.2-19.9,19.9,1.2-1.2,19.9Z" transform="translate(3 3)" style="fill:#4398d1"/><path d="M252.463,53.6h-29.8V23.8h-19.9V53.6h-29.8V73.5h29.8v29.8h19.9V73.5h29.8Z" transform="translate(3 3)" style="fill:#fda72f"/><path d="M381.663,312h-178.9l-4.4,59.6h187.7Z" transform="translate(3 3)" style="fill:#e34b87"/><path d="M202.763,312l-1.7,23.2a1289.725,1289.725,0,0,1,182.3,0l-1.7-23.2Z" transform="translate(3 3)" style="fill:#bf3d75"/><path d="M451.163,322a1281.768,1281.768,0,0,0-318,0V282.2a1281.768,1281.768,0,0,1,318,0Z" transform="translate(3 3)" style="fill:#4398d1"/><path d="M207.663,239.4a1.884,1.884,0,0,1-1.4-.6L2.563,35.1a1.9,1.9,0,0,1-.013-2.687l.013-.013,29.8-29.8A1.933,1.933,0,0,1,35.1,2.533c.023.022.045.044.067.067l203.7,203.7a1.818,1.818,0,0,1,0,2.7l-29.8,29.8A1.884,1.884,0,0,1,207.663,239.4Zm-44.7-49.4,27.1-27.1" transform="translate(3 3)" style="fill:none;stroke:#2b2b2b;stroke-miterlimit:10;stroke-width:10px"/><path d="M182.863,582.3h-.2a1.786,1.786,0,0,1-1.3-.7,2.287,2.287,0,0,1-.5-1.4l19.5-262.8-9.3.7c-22,1.8-40.3,3.6-57.7,5.7h-.2a1.9,1.9,0,0,1-1.9-1.9V282.1a1.863,1.863,0,0,1,1.7-1.9,1286.591,1286.591,0,0,1,318.6,0,1.863,1.863,0,0,1,1.7,1.9V322a1.9,1.9,0,0,1-1.9,1.9h-.2c-17.4-2.2-35.7-4-57.7-5.7l-9.3-.7,19.5,262.8v.2a1.967,1.967,0,0,1-1.9,1.9h-218.9Zm2.1-3.9h214.4l-15.2-204.8h-184.1ZM292.163,314c-26.9,0-54.1.9-80.9,2.6l-7,.4-3.9,52.7h183.6l-3.9-52.7-7-.4C346.263,314.9,319.063,314,292.163,314Z" transform="translate(3 3)" style="fill:none;stroke:#2b2b2b;stroke-miterlimit:10;stroke-width:10px"/><path d="M292.163,184.7a2,2,0,0,1-1.9-1.6,46.414,46.414,0,0,0-38.2-38.1,2.029,2.029,0,0,1-1.6-1.6,1.812,1.812,0,0,1,1.372-2.164,1.745,1.745,0,0,1,.228-.036,46.641,46.641,0,0,0,38.2-38.2,2.029,2.029,0,0,1,1.6-1.6h.3a2,2,0,0,1,1.9,1.6,46.414,46.414,0,0,0,38.2,38.1,2.029,2.029,0,0,1,1.6,1.6,1.812,1.812,0,0,1-1.372,2.164,1.745,1.745,0,0,1-.228.036,46.414,46.414,0,0,0-38.1,38.2,2.029,2.029,0,0,1-1.6,1.6Z" transform="translate(3 3)" style="fill:none;stroke:#2b2b2b;stroke-miterlimit:10;stroke-width:10px"/><path d="M381.563,105.2a2,2,0,0,1-1.9-1.6,46.414,46.414,0,0,0-38.2-38.1,2.029,2.029,0,0,1-1.6-1.6,1.812,1.812,0,0,1,1.372-2.164,1.745,1.745,0,0,1,.228-.036,46.524,46.524,0,0,0,38.2-38.2,2.029,2.029,0,0,1,1.6-1.6h.3a2,2,0,0,1,1.9,1.6,46.414,46.414,0,0,0,38.2,38.1,2.029,2.029,0,0,1,1.6,1.6,1.812,1.812,0,0,1-1.372,2.164,1.745,1.745,0,0,1-.228.036,46.641,46.641,0,0,0-38.2,38.2,2.029,2.029,0,0,1-1.6,1.6Z" transform="translate(3 3)" style="fill:none;stroke:#2b2b2b;stroke-miterlimit:10;stroke-width:10px"/><rect x="199.435" y="493.942" width="73.704" height="3.9" transform="translate(-274.502 693.214) rotate(-85.24)" style="fill:none;stroke:#2b2b2b;stroke-miterlimit:10;stroke-width:4px"/><rect x="239.848" y="419.43" width="3.9" height="3.9" transform="translate(-190.896 639.318) rotate(-86.41)" style="fill:none;stroke:#2b2b2b;stroke-miterlimit:10;stroke-width:4px"/><polygon points="213.763 98.3 213.763 68.5 183.863 68.5 183.863 64.6 213.763 64.6 213.763 34.8 217.563 34.8 217.563 64.6 247.463 64.6 247.463 68.5 217.563 68.5 217.563 98.3 213.763 98.3" style="fill:none;stroke:#2b2b2b;stroke-miterlimit:10;stroke-width:4px"/></svg>