<svg xmlns="http://www.w3.org/2000/svg" viewBox="0 0 593 593" style=""><title>publications</title><path d="M463.1,5.4V522.8a59.663,59.663,0,0,0,59.626,59.7H65.1A59.663,59.663,0,0,1,5.4,522.874V5.4Z" transform="translate(2.5 2.5)" style="fill:#87ced9" class="rQqCPznk_0"></path><path d="M45.3,85.1H423.4V224.4H45.3Z" transform="translate(2.5 2.5)" style="fill:#e34b87" class="rQqCPznk_1"></path><path d="M48.6,303.9H206.7v79.6H48.6Z" transform="translate(2.5 2.5)" style="fill:#e34b87" class="rQqCPznk_2"></path><path d="M261.9,303.9H421v79.6H261.9Z" transform="translate(2.5 2.5)" style="fill:#e34b87" class="rQqCPznk_3"></path><path d="M179.6,224.4H423.4V85.1H318.9Z" transform="translate(2.5 2.5)" style="fill:#d94881" class="rQqCPznk_4"></path><path d="M35.3,35.3h398V55.2H35.3Z" transform="translate(2.5 2.5)" style="fill:#5eb3d1" class="rQqCPznk_5"></path><path d="M35.3,254.2h398v19.9H35.3Z" transform="translate(2.5 2.5)" style="fill:#5eb3d1" class="rQqCPznk_6"></path><path d="M35.3,413.4H219v19.9H35.3Z" transform="translate(2.5 2.5)" style="fill:#5eb3d1" class="rQqCPznk_7"></path><path d="M35.3,453.2H219v19.9H35.3Z" transform="translate(2.5 2.5)" style="fill:#5eb3d1" class="rQqCPznk_8"></path><path d="M35.3,493H219v19.9H35.3Z" transform="translate(2.5 2.5)" style="fill:#5eb3d1" class="rQqCPznk_9"></path><path d="M249.6,413.4H433.3v19.9H249.6Z" transform="translate(2.5 2.5)" style="fill:#5eb3d1" class="rQqCPznk_10"></path><path d="M249.6,453.2H433.3v19.9H249.6Z" transform="translate(2.5 2.5)" style="fill:#5eb3d1" class="rQqCPznk_11"></path><path d="M249.6,493H433.3v19.9H249.6Z" transform="translate(2.5 2.5)" style="fill:#5eb3d1" class="rQqCPznk_12"></path><path d="M55.2,532.8H433.3v19.9H55.2Z" transform="translate(2.5 2.5)" style="fill:#5eb3d1" class="rQqCPznk_13"></path><path d="M522.8,542.8a19.888,19.888,0,0,0,19.9-19.876V114.9H502.9V522.8A20.039,20.039,0,0,0,522.8,542.8Z" transform="translate(2.5 2.5)" style="fill:#5eb3d1" class="rQqCPznk_14"></path><path d="M542.8,154.7V522.8a19.9,19.9,0,0,1-39.8,0V75.1H463.2V522.9a59.7,59.7,0,0,0,119.4,0V154.7Z" transform="translate(2.5 2.5)" style="fill:#71c4d1" class="rQqCPznk_15"></path><path width="382" height="3.9" style="fill:none;stroke:#2b2b2b;stroke-miterlimit:10;stroke-width:4px" d="M45.8 45.8 L427.8 45.8 L427.8 49.699999999999996 L45.8 49.699999999999996 Z" class="rQqCPznk_16"></path><path width="382" height="3.9" style="fill:none;stroke:#2b2b2b;stroke-miterlimit:10;stroke-width:4px" d="M45.8 264.7 L427.8 264.7 L427.8 268.59999999999997 L45.8 268.59999999999997 Z" class="rQqCPznk_17"></path><path d="M45.3,226.3a1.9,1.9,0,0,1-1.9-1.9V85.1a1.988,1.988,0,0,1,1.9-2H423.4a2.052,2.052,0,0,1,2,2V224.4a1.9,1.9,0,0,1-1.9,1.9Zm1.9-3.9H421.4V87H47.2Z" transform="translate(2.5 2.5)" style="fill:none;stroke:#2b2b2b;stroke-miterlimit:10;stroke-width:4px" class="rQqCPznk_18"></path><path d="M50.6,385.5c-1.7,0-3-.9-3-1.9V304c0-1.1,1.3-1.9,3-1.9H203.7c1.7,0,3,.9,3,1.9v79.6c0,1.1-1.3,1.9-3,1.9Z" transform="translate(2.5 2.5)" style="fill:none;stroke:#2b2b2b;stroke-miterlimit:10;stroke-width:4px" class="rQqCPznk_19"></path><path d="M264.9,385.5c-1.7,0-3-.9-3-1.9V304c0-1.1,1.3-1.9,3-1.9H418c1.7,0,3,.9,3,1.9v79.6c0,1.1-1.3,1.9-3,1.9Z" transform="translate(2.5 2.5)" style="fill:none;stroke:#2b2b2b;stroke-miterlimit:10;stroke-width:4px" class="rQqCPznk_20"></path><path width="159.1" height="3.9" style="fill:none;stroke:#2b2b2b;stroke-miterlimit:10;stroke-width:3.7209999561309814px" d="M50.1 423.9 L209.2 423.9 L209.2 427.79999999999995 L50.1 427.79999999999995 Z" class="rQqCPznk_21"></path><path width="159.1" height="3.9" style="fill:none;stroke:#2b2b2b;stroke-miterlimit:10;stroke-width:3.7209999561309814px" d="M50.1 463.7 L209.2 463.7 L209.2 467.59999999999997 L50.1 467.59999999999997 Z" class="rQqCPznk_22"></path><path width="159.1" height="3.9" style="fill:none;stroke:#2b2b2b;stroke-miterlimit:10;stroke-width:3.7209999561309814px" d="M50.1 503.5 L209.2 503.5 L209.2 507.4 L50.1 507.4 Z" class="rQqCPznk_23"></path><path width="159.1" height="3.9" style="fill:none;stroke:#2b2b2b;stroke-miterlimit:10;stroke-width:3.7209999561309814px" d="M264.4 423.9 L423.5 423.9 L423.5 427.79999999999995 L264.4 427.79999999999995 Z" class="rQqCPznk_24"></path><path width="159.1" height="3.9" style="fill:none;stroke:#2b2b2b;stroke-miterlimit:10;stroke-width:3.7209999561309814px" d="M264.4 463.7 L423.5 463.7 L423.5 467.59999999999997 L264.4 467.59999999999997 Z" class="rQqCPznk_25"></path><path width="159.1" height="3.9" style="fill:none;stroke:#2b2b2b;stroke-miterlimit:10;stroke-width:3.7209999561309814px" d="M264.4 503.5 L423.5 503.5 L423.5 507.4 L264.4 507.4 Z" class="rQqCPznk_26"></path><path d="M65.1,584.5A61.776,61.776,0,0,1,3.5,522.8V5.4A1.967,1.967,0,0,1,5.4,3.5H463.1A1.9,1.9,0,0,1,465,5.4V522.8a57.8,57.8,0,0,0,115.6,0V162.7h3.9V522.8a61.928,61.928,0,0,1-61.7,61.7ZM7.4,522.8a57.937,57.937,0,0,0,57.7,57.8l426.8.1-11.8-13.3c-.2-.2-.4-.5-.6-.7l-1.2-1.2c-.2-.3-.5-.5-.7-.8a6.047,6.047,0,0,0-.8-.8,15.208,15.208,0,0,1-1.3-1.5,14.659,14.659,0,0,1-1-1.3c-.2-.3-.5-.6-.7-.9l-.6-.8a22.993,22.993,0,0,1-1.4-1.9l-.1-.1a4.339,4.339,0,0,1-.6-1,6.714,6.714,0,0,0-.7-1.1l-.4-.7c-.5-.8-.9-1.5-1.3-2.1-.2-.4-.5-.9-.7-1.4-.2-.3-.3-.7-.5-1l-.5-1a15.337,15.337,0,0,1-.9-1.9c-.2-.5-.4-1-.6-1.6-.1-.4-.3-.8-.4-1.2s-.3-.7-.4-1.1c-.2-.6-.5-1.2-.7-1.9a16.718,16.718,0,0,0-.5-1.8c-.1-.5-.2-.9-.3-1.3l-.3-1c-.2-.6-.3-1.3-.5-1.8a19.363,19.363,0,0,1-.4-2.7l-.2-1.2c-.1-.4-.1-.8-.2-1.2s-.1-.7-.2-1.1c-.2-2.2-.3-4.3-.3-6.4V7.4H7.4Z" transform="translate(2.5 2.5)" style="fill:none;stroke:#2b2b2b;stroke-miterlimit:10;stroke-width:12px" class="rQqCPznk_27"></path><path d="M522.9,544.7A21.958,21.958,0,0,1,501,522.8V83.1h3.9V522.9a17.9,17.9,0,0,0,35.8,0v-400h3.9V522.8a21.724,21.724,0,0,1-21.547,21.9Z" transform="translate(2.5 2.5)" style="fill:none;stroke:#2b2b2b;stroke-miterlimit:10;stroke-width:10px" class="rQqCPznk_28"></path><path width="362.1" height="3.9" style="fill:none;stroke:#2b2b2b;stroke-miterlimit:10;stroke-width:4px" d="M65.7 543.3 L427.8 543.3 L427.8 547.1999999999999 L65.7 547.1999999999999 Z" class="rQqCPznk_29"></path><style data-made-with="vivus-instant">.rQqCPznk_0{stroke-dasharray:2138 2140;stroke-dashoffset:2139;animation:rQqCPznk_draw 1666ms linear 0ms forwards;}.rQqCPznk_1{stroke-dasharray:1035 1037;stroke-dashoffset:1036;animation:rQqCPznk_draw 1666ms linear 28ms forwards;}.rQqCPznk_2{stroke-dasharray:476 478;stroke-dashoffset:477;animation:rQqCPznk_draw 1666ms linear 57ms forwards;}.rQqCPznk_3{stroke-dasharray:478 480;stroke-dashoffset:479;animation:rQqCPznk_draw 1666ms linear 86ms forwards;}.rQqCPznk_4{stroke-dasharray:685 687;stroke-dashoffset:686;animation:rQqCPznk_draw 1666ms linear 114ms forwards;}.rQqCPznk_5{stroke-dasharray:836 838;stroke-dashoffset:837;animation:rQqCPznk_draw 1666ms linear 143ms forwards;}.rQqCPznk_6{stroke-dasharray:836 838;stroke-dashoffset:837;animation:rQqCPznk_draw 1666ms linear 172ms forwards;}.rQqCPznk_7{stroke-dasharray:408 410;stroke-dashoffset:409;animation:rQqCPznk_draw 1666ms linear 201ms forwards;}.rQqCPznk_8{stroke-dasharray:408 410;stroke-dashoffset:409;animation:rQqCPznk_draw 1666ms linear 229ms forwards;}.rQqCPznk_9{stroke-dasharray:408 410;stroke-dashoffset:409;animation:rQqCPznk_draw 1666ms linear 258ms forwards;}.rQqCPznk_10{stroke-dasharray:408 410;stroke-dashoffset:409;animation:rQqCPznk_draw 1666ms linear 287ms forwards;}.rQqCPznk_11{stroke-dasharray:408 410;stroke-dashoffset:409;animation:rQqCPznk_draw 1666ms linear 316ms forwards;}.rQqCPznk_12{stroke-dasharray:408 410;stroke-dashoffset:409;animation:rQqCPznk_draw 1666ms linear 344ms forwards;}.rQqCPznk_13{stroke-dasharray:796 798;stroke-dashoffset:797;animation:rQqCPznk_draw 1666ms linear 373ms forwards;}.rQqCPznk_14{stroke-dasharray:919 921;stroke-dashoffset:920;animation:rQqCPznk_draw 1666ms linear 402ms forwards;}.rQqCPznk_15{stroke-dasharray:1962 1964;stroke-dashoffset:1963;animation:rQqCPznk_draw 1666ms linear 431ms forwards;}.rQqCPznk_16{stroke-dasharray:772 774;stroke-dashoffset:773;animation:rQqCPznk_draw 1666ms linear 459ms forwards;}.rQqCPznk_17{stroke-dasharray:772 774;stroke-dashoffset:773;animation:rQqCPznk_draw 1666ms linear 488ms forwards;}.rQqCPznk_18{stroke-dasharray:2067 2069;stroke-dashoffset:2068;animation:rQqCPznk_draw 1666ms linear 517ms forwards;}.rQqCPznk_19{stroke-dasharray:482 484;stroke-dashoffset:483;animation:rQqCPznk_draw 1666ms linear 545ms forwards;}.rQqCPznk_20{stroke-dasharray:482 484;stroke-dashoffset:483;animation:rQqCPznk_draw 1666ms linear 574ms forwards;}.rQqCPznk_21{stroke-dasharray:326 328;stroke-dashoffset:327;animation:rQqCPznk_draw 1666ms linear 603ms forwards;}.rQqCPznk_22{stroke-dasharray:326 328;stroke-dashoffset:327;animation:rQqCPznk_draw 1666ms linear 632ms forwards;}.rQqCPznk_23{stroke-dasharray:326 328;stroke-dashoffset:327;animation:rQqCPznk_draw 1666ms linear 660ms forwards;}.rQqCPznk_24{stroke-dasharray:326 328;stroke-dashoffset:327;animation:rQqCPznk_draw 1666ms linear 689ms forwards;}.rQqCPznk_25{stroke-dasharray:326 328;stroke-dashoffset:327;animation:rQqCPznk_draw 1666ms linear 718ms forwards;}.rQqCPznk_26{stroke-dasharray:326 328;stroke-dashoffset:327;animation:rQqCPznk_draw 1666ms linear 747ms forwards;}.rQqCPznk_27{stroke-dasharray:5125 5127;stroke-dashoffset:5126;animation:rQqCPznk_draw 1666ms linear 775ms forwards;}.rQqCPznk_28{stroke-dasharray:1813 1815;stroke-dashoffset:1814;animation:rQqCPznk_draw 1666ms linear 804ms forwards;}.rQqCPznk_29{stroke-dasharray:732 734;stroke-dashoffset:733;animation:rQqCPznk_draw 1666ms linear 833ms forwards;}@keyframes rQqCPznk_draw{100%{stroke-dashoffset:0;}}@keyframes rQqCPznk_fade{0%{stroke-opacity:1;}94.02985074626866%{stroke-opacity:1;}100%{stroke-opacity:0;}}</style></svg>