<svg xmlns="http://www.w3.org/2000/svg" viewBox="0 0 471.833 472.096"><title>teaching</title><path d="M249.9,261.6a31.893,31.893,0,0,1-43.573-11.654l-.027-.046-16-27.7,55.3-31.9,16,27.7a31.893,31.893,0,0,1-11.654,43.573Z" transform="translate(2 2.004)" style="fill:#3d4d63"/><path d="M186.1,257.9h95.8v31.9H186.1Z" transform="translate(2 2.004)" style="fill:#348fd9"/><path d="M249.9,257.9h31.9v31.9H249.9Z" transform="translate(2 2.004)" style="fill:#3086cd"/><path d="M218,289.9h31.9V465.5H218Z" transform="translate(2 2.004)" style="fill:#4db7e5"/><path d="M218,289.9H186.1L122.2,465.5h31.9Z" transform="translate(2 2.004)" style="fill:#4db7e5"/><path d="M249.9,289.9h31.9l63.9,175.6H313.8Z" transform="translate(2 2.004)" style="fill:#4db7e5"/><path d="M346.3,183.6,279.5,74.3,398.7,2.5l66.8,109.3Z" transform="translate(2 2.004)" style="fill:#348fd9"/><path d="M188.4,253.7l-44.5-72.9L290.6,92.5l44.5,72.8Z" transform="translate(2 2.004)" style="fill:#4db7e5"/><path d="M188.6,254.1l-13.9-22.3,146.5-88.7,13.9,22.3Z" transform="translate(2 2.004)" style="fill:#48add9"/><path d="M177.3,235.5,155,199.1,72.5,248.8l22.2,36.4Z" transform="translate(2 2.004)" style="fill:#348fd9"/><path d="M177.3,235.5l-12-19.5L82.8,265.8l12,19.5Z" transform="translate(2 2.004)" style="fill:#3086cd"/><path d="M72.5,248.8,45,265.4l5.6,9.1a32.257,32.257,0,0,0,44.2,10.7Z" transform="translate(2 2.004)" style="fill:#3d4d63"/><path d="M45,265.4l27.5-16.6L55.8,221.5,28.3,238.1Z" transform="translate(2 2.004)" style="fill:#348fd9"/><path d="M28.3,238.1,2.4,216.3l45.9-27.6,7.5,32.8Z" transform="translate(2 2.004)" style="fill:#3d4d63"/><path d="M162.1,257.6A21.5,21.5,0,1,0,140.5,279h.1a21.446,21.446,0,0,0,21.5-21.392Z" transform="translate(2 2.004)" style="fill:#3d4d63"/><path d="M218,433.6h31.9v31.9H218Z" transform="translate(2 2.004)" style="fill:#3d4d63"/><path d="M122.2,465.5h31.9l11.6-31.9H133.8Z" transform="translate(2 2.004)" style="fill:#3d4d63"/><path d="M302.2,433.6l11.6,31.9h31.9l-11.6-31.9Z" transform="translate(2 2.004)" style="fill:#3d4d63"/><path d="M328.6,154.6l17.7,29,119.2-71.8-18-29.4Z" transform="translate(2 2.004)" style="fill:#3086cd"/><path d="M313.8,466.5a.961.961,0,0,1-.9-.7l-48.4-133-13.2-34.5-.4,167.2a1,1,0,0,1-1,1H218a1,1,0,0,1-1-1V335.2l-.4-38.7L155,465.8a.874.874,0,0,1-.9.6H122.2a1.234,1.234,0,0,1-.8-.4.971.971,0,0,1-.1-.9l63.8-175.5V257.9a.756.756,0,0,1,.1-.4l29-.1-9.8-14.1-15.6,8.8-10.1-16.5-23.2,14,1,4.8a17.3,17.3,0,0,1-.1,6.8,16.072,16.072,0,0,1-15.7,12.2,17.382,17.382,0,0,1-3.9-.5,16.047,16.047,0,0,1-6.1-3.1l-3.8-3.1-31.5,19a33.448,33.448,0,0,1-17.1,4.8,32.958,32.958,0,0,1-28.4-15.9l-5.6-9.1L27.5,238.7,1.8,217a1.135,1.135,0,0,1-.3-.8,1.022,1.022,0,0,1,.5-.8l45.9-27.6a1.078,1.078,0,0,1,.5-.1.6.6,0,0,1,.4.1,1.054,1.054,0,0,1,.6.7l7.4,32.7,16,26.3,80.8-48.7L143,181.4a.879.879,0,0,1-.1-.7c.1-.2.2-.5.4-.6L289.2,92.2,278.6,74.8a1.064,1.064,0,0,1-.1-.8c.1-.2.2-.5.4-.6L398.2,1.6a.9.9,0,0,1,.5-.1.818.818,0,0,1,.8.5l66.7,109.3a.879.879,0,0,1,.1.7.917.917,0,0,1-.4.6L346.7,184.4a.991.991,0,0,1-1.3-.4l-10.6-17.4L259.4,212l3.3,5.9A32.439,32.439,0,0,1,264,247l-4.4,9.8h22.3a1,1,0,0,1,1,1v31.8l63.8,175.5a.971.971,0,0,1-.1.9.911.911,0,0,1-.8.4h-32Zm.7-2h29.8L281.2,290.8H251.4Zm-95.5,0h30V290.9H219Zm-95.4,0h29.8l63.1-173.7H186.7ZM187,288.9h93.8v-30H187ZM53.8,277.3a31.689,31.689,0,0,0,24.3,11.6,26.455,26.455,0,0,0,6.3-.7l9.7-2L80.5,263.9l-8.4-13.8L46.3,265.7l7.1,11.6Zm20.1-28.1,6.8,11.2,14.4,23.5,30.6-18.4-1-4.8a16,16,0,0,1,25.8-15.5l3.8,3.1,21.6-12.9L167,220.9l-12.3-20.4Zm63.3,22.1a13.163,13.163,0,0,0,3.4.4,14.082,14.082,0,0,0,11.1-5.4H153l1.3-5.4a13.609,13.609,0,0,0-1.7-10.6,14.07,14.07,0,0,0-8.8-6.4,11.932,11.932,0,0,0-3.3-.4,14.117,14.117,0,0,0-13.7,10.7,14.326,14.326,0,0,0,1.6,10.7A14.07,14.07,0,0,0,137.2,271.3ZM29.7,238.4,45.3,264l7.3-4.3,18.6-11.2L55.5,222.8Zm174.7,6.9,4.2,6.1a37.4,37.4,0,0,0,2.6,3.3l2.1,2.3h41.5l2.1-2.3a30.585,30.585,0,0,0,4.5-35.1l-3.5-6.5ZM178.2,235l10.6,17.3L333.9,165,290.4,93.8l-145,87.4,24.2,39.7,7.8,12.7ZM4.1,216.4l24.3,20.5,26.3-15.8-7.1-30.8ZM336,164.9l10.6,17.3,117.5-70.8L398.4,3.8,280.9,74.7,335,163.2Z" transform="translate(2 2.004)" style="fill:none;stroke:#000;stroke-miterlimit:10;stroke-width:7px"/><rect x="379.905" y="49.524" width="2.3" height="2" transform="translate(33.215 211.798) rotate(-32.031)" style="fill:none;stroke:#000;stroke-miterlimit:10;stroke-width:6px"/><rect x="327.171" y="71.892" width="33.499" height="2" transform="translate(13.035 187.951) rotate(-30.725)" style="fill:none;stroke:#000;stroke-miterlimit:10;stroke-width:6px"/><rect x="271.828" y="139.519" width="2.4" height="2" transform="translate(-31.355 162.993) rotate(-31.056)" style="fill:none;stroke:#000;stroke-miterlimit:10;stroke-width:6px"/><rect x="189.69" y="171.878" width="58.7" height="2" transform="translate(-55.784 139.757) rotate(-31.051)" style="fill:none;stroke:#000;stroke-miterlimit:10;stroke-width:6px"/></svg>