<svg xmlns="http://www.w3.org/2000/svg" viewBox="0 0 511.292 506.332" style=""><title>trips</title><path style="fill:#4398d1" d="M130.292,37.732L258.292,5.932L386.292,40.032L505.692,5.932L505.692,466.632L386.292,500.832L258.292,466.632L130.292,500.832L10.792,466.632L10.792,5.932L61.992,20.532L130.292,37.732Z" class="NLLxoAcs_0"></path><path style="fill:#3e8cc7" d="M61.992,20.532L10.792,5.932L10.792,466.632L130.292,500.832L130.292,37.732L61.992,20.532Z" class="NLLxoAcs_1"></path><path style="fill:#3e8cc7" d="M258.292,5.932L258.292,466.632L386.292,500.832L386.292,40.032L258.292,5.932Z" class="NLLxoAcs_2"></path><path style="fill:#88b337" d="M10.792,99.732L53.492,142.432L53.492,210.632L113.192,270.432L113.192,227.732L164.392,227.732L215.592,172.232L241.192,168.032L207.092,125.332L177.192,155.232L151.592,129.632L181.492,99.732L10.792,99.732Z" class="NLLxoAcs_3"></path><path style="fill:#88b337" d="M113.192,270.432L181.492,270.432L202.792,291.732L232.692,291.732L232.692,364.232L189.992,398.432L189.992,441.032L147.392,406.932L147.392,355.732L113.192,330.132L113.192,270.432Z" class="NLLxoAcs_4"></path><path style="fill:#88b337" d="M420.392,296.032L454.592,244.832L403.392,244.832L377.792,193.632L309.492,193.632L275.392,232.032L275.392,270.432L335.092,270.432L335.092,398.432L386.292,398.432L420.392,296.032Z" class="NLLxoAcs_5"></path><path style="fill:#88b337" d="M403.392,65.632L360.692,116.832L335.092,116.832L335.092,159.532L420.392,159.532L437.492,202.132L505.692,202.132L505.692,65.632L403.392,65.632Z" class="NLLxoAcs_6"></path><path style="fill:#88b337" d="M445.992,398.432L386.292,432.532L403.392,458.132L463.092,432.532L445.992,398.432Z" class="NLLxoAcs_7"></path><path style="fill:#88b337" d="M283.892,74.132L300.992,99.732L387.892,39.532L386.292,40.032L292.392,14.932L300.992,57.132L283.892,74.132Z" class="NLLxoAcs_8"></path><path style="fill:#80a638" d="M129.192,227.732L129.192,99.732L10.792,99.732L53.492,142.432L53.492,210.632L113.192,270.432L113.192,227.732L129.192,227.732Z" class="NLLxoAcs_9"></path><path style="fill:#80a638" d="M113.192,270.432L113.192,330.132L129.192,342.132L129.192,270.432L113.192,270.432Z" class="NLLxoAcs_10"></path><path style="fill:#80a638" d="M309.492,193.632L275.392,232.032L275.392,270.432L335.092,270.432L335.092,398.432L386.292,398.432L386.292,210.632L377.792,193.632L309.492,193.632Z" class="NLLxoAcs_11"></path><path style="fill:#80a638" d="M360.692,116.832L335.092,116.832L335.092,159.532L386.292,159.532L386.292,86.132L360.692,116.832Z" class="NLLxoAcs_12"></path><path d="M92.037,2.6a45.557,45.557,0,0,0-38,70.9l38,57,38-57a45.58,45.58,0,0,0-38-70.9Zm0,59.7a17.05,17.05,0,1,1-.006-34.1h.006a17.05,17.05,0,0,1,0,34.1Z" transform="translate(7.255 3.332)" style="fill:#de4c3c" class="NLLxoAcs_13"></path><path d="M418.637,292.7a45.633,45.633,0,0,0-38,71l38,57,38-57a45.62,45.62,0,0,0-12.645-63.264l-.055-.036A44.855,44.855,0,0,0,418.637,292.7Zm0,59.7a17.092,17.092,0,1,1,.016,0Z" transform="translate(7.255 3.332)" style="fill:#de4c3c" class="NLLxoAcs_14"></path><path d="M379.037,498h0l-128-34.1L123.137,498h-.2L3.437,463.8a.665.665,0,0,1-.4-.5V2.4a.6.6,0,0,1,.5-.4h.1l53.6,15.3,3.3-3.1a42.879,42.879,0,0,1,9.6-6.8A47.919,47.919,0,0,1,92.037,2a46.045,46.045,0,0,1,40.6,24.2,4.915,4.915,0,0,0,.3.7l2.9,5.8L250.937,2h.2l127.9,34.1,119.3-34h.2a.472.472,0,0,1,.5.442.561.561,0,0,1,0,.058V463.4a.665.665,0,0,1-.4.5L379.137,498Zm-128-35.2h.1l127.9,34.1,118.9-34V199.3h-67.7a.551.551,0,0,1-.5-.3l-16.9-42.3h-85a.472.472,0,0,1-.5-.442.561.561,0,0,1,0-.058V113.5a.472.472,0,0,1,.442-.5.561.561,0,0,1,.058,0h25.3l42.5-51a.762.762,0,0,1,.4-.2h101.9V3.3l-118.7,33.9-85.2,59.7a.366.366,0,0,1-.3.1h-.2c-.1,0-.2-.1-.3-.2l-17.1-25.6a.617.617,0,0,1,.1-.7l16.9-16.9-8.3-41.4-33.8-9-114.6,30.5,1.2,7.2a45.094,45.094,0,0,1-7.1,32.9l-14.7,22.1h58.5a.762.762,0,0,1,.4.2.6.6,0,0,1,0,.8l-29.5,29.5,24.8,24.8,29.5-29.5a.762.762,0,0,1,.4-.2c.1,0,.2.1.3.2l34.1,42.7c0,.1.1.1.1.2a.758.758,0,0,1-.1.4.4.4,0,0,1-.4.2l-25.4,4.2-51.1,55.3a.517.517,0,0,1-.4.2h-50.7v41.6h67.7c.1,0,.3.1.4.1l21.2,21.2h29.6a.472.472,0,0,1,.5.442.561.561,0,0,1,0,.058v72.5a.517.517,0,0,1-.2.4l-42.5,34v42.4a.366.366,0,0,1-.1.3.762.762,0,0,1-.4.2.441.441,0,0,1-.3-.1l-42.5-34a.762.762,0,0,1-.2-.4V352.7l-33.9-25.4a.762.762,0,0,1-.2-.4V267.4l-59.6-59.6a.517.517,0,0,1-.2-.4v-68L4.137,97.7V462.9l118.9,34,127.8-34.1Zm-144.5-136.3,33.9,25.4a.762.762,0,0,1,.2.4v50.9l41.6,33.3V394.9a.517.517,0,0,1,.2-.4l42.5-34V288.8h-29.3c-.1,0-.3-.1-.4-.1l-21.2-21.1h-67.5Zm-59.9-187.8a.517.517,0,0,1,.2.4v68l58.7,58.7V224.4a.472.472,0,0,1,.442-.5.561.561,0,0,1,.058,0h51l51-55.3c.1-.1.2-.1.3-.2l24.7-4.1-33.2-41.5-29.4,29.4a.7.7,0,0,1-.4.2.517.517,0,0,1-.4-.2l-25.7-25.7v-.2a.52.52,0,0,1,.2-.4l29-29h-58.1l-22.6,33.9a.1.1,0,0,1-.1.1h0a.366.366,0,0,1-.3.1.4.4,0,0,1-.4-.2L68.937,97H4.837Zm281.7,16.9h84.8a.551.551,0,0,1,.5.3l16.9,42.3h67.4V62.8h-101.6l-42.5,51a.762.762,0,0,1-.4.2h-25.1ZM92.037,3.1a44.573,44.573,0,0,0-25,7.6A45.138,45.138,0,0,0,54.422,73.277l.015.023,37.6,56.3,37.5-56.4a45.058,45.058,0,0,0-37.5-70.1ZM4.137,95.9h64.2l-14.7-22a44.95,44.95,0,0,1-2.5-47.1l4.7-8.7L4.137,3.3Zm290.1-42.3a.749.749,0,0,1-.1.5l-16.7,16.7,16.5,24.8,83.9-58.8-91.8-24.5Z" transform="translate(7.255 3.332)" style="fill:none;stroke:#2b2b2b;stroke-miterlimit:10;stroke-width:10px" class="NLLxoAcs_15"></path><path style="fill:none;stroke:#2b2b2b;stroke-miterlimit:10;stroke-width:18px" d="M90.19200000000001,48.532A9.1,9.1 0,1,1 108.392,48.532A9.1,9.1 0,1,1 90.19200000000001,48.532" class="NLLxoAcs_16"></path><path d="M396.137,455.3a.517.517,0,0,1-.4-.2l-17.1-25.6a.1.1,0,0,0-.1-.1h0a.585.585,0,0,1,.3-.7l33.4-16.7-21.9-32.9-10.8,16.2a.762.762,0,0,1-.4.2h-51.2a.472.472,0,0,1-.5-.442.561.561,0,0,1,0-.058V267.6h-59.2a.472.472,0,0,1-.5-.442.561.561,0,0,1,0-.058V228.7a.6.6,0,0,1,.1-.4l34.1-38.4a.517.517,0,0,1,.4-.2h68.3a.551.551,0,0,1,.5.3l25.4,50.9h50.9a.366.366,0,0,1,.3.1c.1,0,.2.1.2.4,0,.2,0,.3-.1.4l-32.8,49.1,12,2.1a45.37,45.37,0,0,1,32.2,23.5l.1.1a45.3,45.3,0,0,1-2.3,47.3l-19,28.6,18.2,36.4.1.2a.445.445,0,0,1-.244.581.369.369,0,0,1-.056.019l-59.7,25.6Zm-16.3-25.9,16.5,24.7,58.8-25.2-17.7-35.5-18.4,27.6a.1.1,0,0,1-.1.1h0a.366.366,0,0,1-.3.1.4.4,0,0,1-.4-.2l-5.4-8.1Zm38.7-136.2a45.16,45.16,0,0,0-37.5,70.2l37.5,56.3,28-42.1,9.5-14.3a45.05,45.05,0,0,0-37.5-70.1Zm-149.9-64.3v37.7h59.2a.472.472,0,0,1,.5.442.561.561,0,0,1,0,.058V394.6h50.4l10.9-16.4-9.5-14.2a45.3,45.3,0,0,1-6.9-16.5,46.193,46.193,0,0,1,36.1-54.3l3.2-.7,33.7-50.5h-50.2a.551.551,0,0,1-.5-.3l-25.5-50.9h-67.7Z" transform="translate(7.255 3.332)" style="fill:none;stroke:#2b2b2b;stroke-miterlimit:10;stroke-width:10px" class="NLLxoAcs_17"></path><path d="M418.637,344.4a9.1,9.1,0,1,1,9.1-9.1A9.1,9.1,0,0,1,418.637,344.4Z" transform="translate(7.255 3.332)" style="fill:none;stroke:#2b2b2b;stroke-miterlimit:10;stroke-width:18px" class="NLLxoAcs_18"></path><style data-made-with="vivus-instant">.NLLxoAcs_0{stroke-dasharray:1948 1950;stroke-dashoffset:1949;animation:NLLxoAcs_draw 1666ms linear 0ms forwards;}.NLLxoAcs_1{stroke-dasharray:1172 1174;stroke-dashoffset:1173;animation:NLLxoAcs_draw 1666ms linear 46ms forwards;}.NLLxoAcs_2{stroke-dasharray:1187 1189;stroke-dashoffset:1188;animation:NLLxoAcs_draw 1666ms linear 92ms forwards;}.NLLxoAcs_3{stroke-dasharray:755 757;stroke-dashoffset:756;animation:NLLxoAcs_draw 1666ms linear 138ms forwards;}.NLLxoAcs_4{stroke-dasharray:507 509;stroke-dashoffset:508;animation:NLLxoAcs_draw 1666ms linear 185ms forwards;}.NLLxoAcs_5{stroke-dasharray:675 677;stroke-dashoffset:676;animation:NLLxoAcs_draw 1666ms linear 231ms forwards;}.NLLxoAcs_6{stroke-dasharray:574 576;stroke-dashoffset:575;animation:NLLxoAcs_draw 1666ms linear 277ms forwards;}.NLLxoAcs_7{stroke-dasharray:203 205;stroke-dashoffset:204;animation:NLLxoAcs_draw 1666ms linear 324ms forwards;}.NLLxoAcs_8{stroke-dasharray:303 305;stroke-dashoffset:304;animation:NLLxoAcs_draw 1666ms linear 370ms forwards;}.NLLxoAcs_9{stroke-dasharray:519 521;stroke-dashoffset:520;animation:NLLxoAcs_draw 1666ms linear 416ms forwards;}.NLLxoAcs_10{stroke-dasharray:168 170;stroke-dashoffset:169;animation:NLLxoAcs_draw 1666ms linear 462ms forwards;}.NLLxoAcs_11{stroke-dasharray:604 606;stroke-dashoffset:605;animation:NLLxoAcs_draw 1666ms linear 509ms forwards;}.NLLxoAcs_12{stroke-dasharray:233 235;stroke-dashoffset:234;animation:NLLxoAcs_draw 1666ms linear 555ms forwards;}.NLLxoAcs_13{stroke-dasharray:442 444;stroke-dashoffset:443;animation:NLLxoAcs_draw 1666ms linear 601ms forwards;}.NLLxoAcs_14{stroke-dasharray:442 444;stroke-dashoffset:443;animation:NLLxoAcs_draw 1666ms linear 648ms forwards;}.NLLxoAcs_15{stroke-dasharray:8072 8074;stroke-dashoffset:8073;animation:NLLxoAcs_draw 1666ms linear 694ms forwards;}.NLLxoAcs_16{stroke-dasharray:58 60;stroke-dashoffset:59;animation:NLLxoAcs_draw 1666ms linear 740ms forwards;}.NLLxoAcs_17{stroke-dasharray:2178 2180;stroke-dashoffset:2179;animation:NLLxoAcs_draw 1666ms linear 787ms forwards;}.NLLxoAcs_18{stroke-dasharray:58 60;stroke-dashoffset:59;animation:NLLxoAcs_draw 1666ms linear 833ms forwards;}@keyframes NLLxoAcs_draw{100%{stroke-dashoffset:0;}}@keyframes NLLxoAcs_fade{0%{stroke-opacity:1;}94.02985074626866%{stroke-opacity:1;}100%{stroke-opacity:0;}}</style></svg>