<svg xmlns="http://www.w3.org/2000/svg" viewBox="0 0 478.093 477.901"><title>works</title><path d="M68.075,276h-32L5.775,86.4a134.16,134.16,0,0,1-1.7-21,57.483,57.483,0,0,1,6-25.4l12.3-24.7a20.574,20.574,0,0,1,38.9,8Z" transform="translate(2.018 2.001)" style="fill:#ffb531"/><path d="M68.075,355.9v-88a16,16,0,0,0-32,0l-8,6a60.063,60.063,0,0,0,5.1,99.5l10.9,6.5h40Z" transform="translate(2.018 2.001)" style="fill:#ffb531"/><path d="M68.075,268a16,16,0,1,1-16-16A16,16,0,0,1,68.075,268Z" transform="translate(2.018 2.001)" style="fill:#f7a116"/><path d="M250.775,126.4l-175-76.6a22.362,22.362,0,0,0-21.4,1.8,22.589,22.589,0,0,0,1.5,38.8l146.6,79.4a63.931,63.931,0,0,1,33.5,56.3V356h120l-42-156.1A111.442,111.442,0,0,0,250.775,126.4Z" transform="translate(2.018 2.001)" style="fill:#ffa912"/><path d="M312.775,196h-84.4a64.731,64.731,0,0,1,7.7,30.1V356h120l-42-156.1C313.675,198.5,313.175,197.3,312.775,196Z" transform="translate(2.018 2.001)" style="fill:#f7a116"/><path d="M140.075,387.9h288a40,40,0,0,1,0,80h-288a40,40,0,1,1,0-80Z" transform="translate(2.018 2.001)" style="fill:#2e3e51"/><path d="M180.075,427.9a39.989,39.989,0,1,1,0-.022Z" transform="translate(2.018 2.001)" style="fill:#3d4d63"/><path d="M156.075,427.9a16,16,0,1,1-16-16A16,16,0,0,1,156.075,427.9Z" transform="translate(2.018 2.001)" style="fill:#22303d"/><path d="M468.075,427.9a39.989,39.989,0,1,1,0-.022Z" transform="translate(2.018 2.001)" style="fill:#3d4d63"/><path d="M444.075,427.9a16,16,0,1,1-16-16A16,16,0,0,1,444.075,427.9Z" transform="translate(2.018 2.001)" style="fill:#22303d"/><path d="M300.075,419.9h16v16h-16Z" transform="translate(2.018 2.001)" style="fill:#3d4d63"/><path d="M252.075,419.9h16v16h-16Z" transform="translate(2.018 2.001)" style="fill:#3d4d63"/><path d="M348.075,419.9h16v16h-16Z" transform="translate(2.018 2.001)" style="fill:#3d4d63"/><path d="M204.075,419.9h16v16h-16Z" transform="translate(2.018 2.001)" style="fill:#3d4d63"/><path d="M300.075,435.9h16v16h-16Z" transform="translate(2.018 2.001)" style="fill:#22303d"/><path d="M252.075,435.9h16v16h-16Z" transform="translate(2.018 2.001)" style="fill:#22303d"/><path d="M348.075,435.9h16v16h-16Z" transform="translate(2.018 2.001)" style="fill:#22303d"/><path d="M204.075,435.9h16v16h-16Z" transform="translate(2.018 2.001)" style="fill:#22303d"/><path d="M204.075,355.9h160v32h-160Z" transform="translate(2.018 2.001)" style="fill:#ffa912"/><path d="M396.075,268h-248v88h272V292Z" transform="translate(2.018 2.001)" style="fill:#ffb531"/><path d="M372.075,291.9h16v24h-16Z" transform="translate(2.018 2.001)" style="fill:#e8770c"/><path d="M340.075,291.9h16v24h-16Z" transform="translate(2.018 2.001)" style="fill:#e8770c"/><path d="M276.075,323.9h-128v-64l32-48h96Z" transform="translate(2.018 2.001)" style="fill:#4db7e5"/><path d="M204.075,323.9v-24l48-48h24v72Z" transform="translate(2.018 2.001)" style="fill:#419bc2"/><path d="M380.075,236h-56a16.047,16.047,0,0,0-16,16v16h88V252a15.983,15.983,0,0,0-15.966-16Z" transform="translate(2.018 2.001)" style="fill:#d6d6d4"/><path d="M428.075,475.9h-288a48,48,0,1,1,0-96h288a48,48,0,0,1,0,96Zm-288-80a32,32,0,1,0,0,64h288a32,32,0,0,0,0-64Z" transform="translate(2.018 2.001)" style="fill:#4c5d72"/><path d="M204.075,355.9h160v16h-160Z" transform="translate(2.018 2.001)" style="fill:#f7a116"/><circle cx="142.093" cy="429.901" r="9" style="fill:none;stroke:#2b2b2b;stroke-miterlimit:10;stroke-width:18px"/><path d="M140.075,468.9a41,41,0,1,1,0-82h63v-30h-55a.945.945,0,0,1-1-.887,1.065,1.065,0,0,1,0-.113v-96a1.423,1.423,0,0,1,.2-.6l32-48a.911.911,0,0,1,.8-.4h54l-4.2-9.7a62.509,62.509,0,0,0-27.8-30.5L64.175,96l4.6,169.3.1.5a16.414,16.414,0,0,1,.2,2.3v87.6l15.8,23.7a1.184,1.184,0,0,1,.1,1,1.05,1.05,0,0,1-.9.5h-40a.749.749,0,0,1-.5-.1l-10.9-6.5a61.061,61.061,0,0,1-5.3-101.2l6.4-4.8-29-181.8a136.422,136.422,0,0,1-1.7-21.1,58.342,58.342,0,0,1,6.1-25.9l12.4-24.7A21.53,21.53,0,0,1,40.775,3a20.832,20.832,0,0,1,4.3.4,21.387,21.387,0,0,1,17.1,19.7l.7,23.3,6.1.6a22.547,22.547,0,0,1,7.2,1.9l175,76.6a111.858,111.858,0,0,1,63.8,74.1l9.5,35.4h55.6a16.986,16.986,0,0,1,17,16.972V267.6l23.7,23.7a.908.908,0,0,1,.3.7v64a.945.945,0,0,1-.887,1,1.065,1.065,0,0,1-.113,0h-55v30h63a41,41,0,1,1,0,82h-288Zm288-80a39,39,0,1,0,39,39h0A39.05,39.05,0,0,0,428.075,388.9Zm-257.5,11.7a40.526,40.526,0,0,1,0,54.6l-10.6,11.7h248.1l-10.6-11.7a40.526,40.526,0,0,1,0-54.6l10.6-11.7h-248.1Zm-30.5-11.7a39,39,0,1,0,39,39h0A39.05,39.05,0,0,0,140.075,388.9Zm65-2h158v-30h-158ZM26.475,276.6a58.953,58.953,0,0,0,7.3,96l10.6,6.3h37.9l-15-22.4a1.423,1.423,0,0,1-.2-.6V280.4l-9.4,3.5a15.557,15.557,0,0,1-5.7,1,15.933,15.933,0,0,1-12.5-5.9l-1.5-1.8-2.2-.5a.762.762,0,0,1-.4-.2l-4.5-3.6Zm122.6,78.3h270V292.3l-23.4-23.3h-118.6v55a.945.945,0,0,1-.887,1,1.065,1.065,0,0,1-.113,0h-127Zm56-54.5V323h70V253h-22.6Zm-56-40.2v62.7h54v-23a.908.908,0,0,1,.3-.7l48-48a.908.908,0,0,1,.7-.3h23v-38h-94.5Zm-97-7.2a15,15,0,1,0,14.8,16.7l.1-.5-.1-3v-.3c-.1-.5-.1-.9-.2-1.4V264l-.5-1.3a14.255,14.255,0,0,0-2.5-4.3c-.5-.6-1-1.1-1.5-1.7l-.1-.1-.1-.1c-.8-.6-1.6-1.2-2.4-1.7a10.891,10.891,0,0,0-1.5-.8l-.2-.1-.2-.1A20.483,20.483,0,0,0,52.075,253Zm272-16a14.98,14.98,0,0,0-15,14.96V267h86V252a14.98,14.98,0,0,0-14.96-15h-56.04ZM66.775,49a21.613,21.613,0,0,0-10.5,40.5l146.8,79.4a64.556,64.556,0,0,1,30.8,37.2l1.6,4.9h40.6a.945.945,0,0,1,1,.887,1.065,1.065,0,0,1,0,.113v55h30V252a17,17,0,0,1,9.8-15.3l5.3-2.5-9.1-34a110.083,110.083,0,0,0-62.7-72.8l-175-76.6A19.847,19.847,0,0,0,66.775,49ZM40.875,5.2a20.736,20.736,0,0,0-3.5.3,20.01,20.01,0,0,0-14,10.1l-12.4,24.8a57.065,57.065,0,0,0-5.9,25,131.628,131.628,0,0,0,1.7,20.8l27.6,172.7,8.9-5.5a5.971,5.971,0,0,1,.8-.4s.9-.5,1.1-.6.3-.2.5-.3c.7-.2,1.3-.4,1.9-.6h.1c.3-.1.5-.1.8-.2.1,0,.2-.1.3-.1a18.446,18.446,0,0,1,3.3-.3,16.285,16.285,0,0,1,3.1.3h.2c.1,0,.3.1.4.1a2.36,2.36,0,0,0,.8.2l.6.1,9.5,3.1-.3-10-4.2-149.9-6.8-3.6a23.629,23.629,0,0,1-12.3-21.4,23.305,23.305,0,0,1,13.6-20.6l4.2-1.9-.7-24.1V23a19.148,19.148,0,0,0-6.1-12.6l-.1-.1A19.426,19.426,0,0,0,40.875,5.2Z" transform="translate(2.018 2.001)" style="fill:none;stroke:#2b2b2b;stroke-miterlimit:10;stroke-width:10px"/><circle cx="430.093" cy="429.901" r="9" style="fill:none;stroke:#2b2b2b;stroke-miterlimit:10;stroke-width:18px"/><rect x="309.093" y="428.901" width="2" height="2" style="fill:none;stroke:#2b2b2b;stroke-miterlimit:10;stroke-width:18px"/><rect x="261.093" y="428.901" width="2" height="2" style="fill:none;stroke:#2b2b2b;stroke-miterlimit:10;stroke-width:18px"/><rect x="357.093" y="428.901" width="2" height="2" style="fill:none;stroke:#2b2b2b;stroke-miterlimit:10;stroke-width:18px"/><rect x="213.093" y="428.901" width="2" height="2" style="fill:none;stroke:#2b2b2b;stroke-miterlimit:10;stroke-width:18px"/><rect x="381.093" y="301.001" width="2" height="10" style="fill:none;stroke:#2b2b2b;stroke-miterlimit:10;stroke-width:18px"/><rect x="349.093" y="301.001" width="2" height="10" style="fill:none;stroke:#2b2b2b;stroke-miterlimit:10;stroke-width:18px"/></svg>